<?xml version="1.0" encoding="utf-8"?>
<!-- Generator: Adobe Illustrator 26.0.3, SVG Export Plug-In . SVG Version: 6.00 Build 0)  -->
<svg version="1.1" id="flag-icons-fr" xmlns="http://www.w3.org/2000/svg" x="0px"
	 y="0px" viewBox="0 0 640 480" style="enable-background:new 0 0 640 480;" xml:space="preserve">
<style type="text/css">
	.st0{fill:#002868;}
	.st1{fill:#CE142B;}
	.st2{fill:#FEFEFE;}
	.st3{fill:#00247D;}
	.st4{fill:#BE0A30;}
	.st5{fill:#C8000E;}
	.st6{fill:#002265;}
	.st7{fill:#D01A31;}
	.st8{fill:#B50014;}
	.st9{fill:#C01136;}
	.st10{fill:#FDF9F9;}
	.st11{fill:#00046A;}
	.st12{fill:#B40012;}
	.st13{fill:#C00F36;}
	.st14{fill:#042A7F;}
	.st15{fill:#C90014;}
	.st16{fill:#BA0023;}
	.st17{fill:#FCFDFD;}
	.st18{fill:#FDFDFD;}
	.st19{fill:#FDFDFE;}
	.st20{fill:#FCFCFD;}
	.st21{fill:#FBFCFD;}
	.st22{fill:#B60015;}
	.st23{fill:#BA001F;}
	.st24{fill:#CD072B;}
	.st25{fill:#00165C;}
	.st26{fill:#021C60;}
	.st27{fill:#031A5F;}
	.st28{fill:#031A5E;}
	.st29{fill:#031F62;}
	.st30{fill:#041157;}
	.st31{fill:#03155B;}
	.st32{fill:#00195E;}
	.st33{fill:#000C54;}
	.st34{fill:#000851;}
	.st35{fill:#00064F;}
	.st36{fill:#000B53;}
	.st37{fill:#000A53;}
	.st38{fill:#000650;}
	.st39{fill:#00054F;}
	.st40{fill:#011259;}
	.st41{fill:#00175C;}
	.st42{fill:#00165B;}
	.st43{fill:#030B53;}
	.st44{fill:#001158;}
	.st45{fill:#000B52;}
	.st46{fill:#000A52;}
	.st47{fill:#001258;}
	.st48{fill:#00024C;}
	.st49{fill:#00044E;}
	.st50{fill:#082063;}
	.st51{fill:#091F61;}
	.st52{fill:#041C5F;}
	.st53{fill:#0A1D60;}
	.st54{fill:#091C60;}
	.st55{fill:#091D60;}
	.st56{fill:#081C5F;}
	.st57{fill:#112364;}
	.st58{fill:#07195D;}
	.st59{fill:#05185D;}
	.st60{fill:#0A1C5F;}
	.st61{fill:#0C1E61;}
	.st62{fill:#00155A;}
	.st63{fill:#BAC5D6;}
	.st64{fill:#071E61;}
	.st65{fill:#001359;}
	.st66{fill:#000A51;}
	.st67{fill:#001057;}
	.st68{fill:#CE182F;}
	.st69{fill:#CD2C47;}
	.st70{fill:#CC2945;}
	.st71{fill:#CB0A1B;}
	.st72{fill:#CB0A1C;}
	.st73{fill:#CB091B;}
	.st74{fill:#B7001A;}
	.st75{fill:#F9E4E7;}
	.st76{fill:#F9E5E7;}
	.st77{fill:#F9E5E8;}
	.st78{fill:#051474;}
	.st79{fill:#051574;}
	.st80{fill:#FAEAEC;}
	.st81{fill:#F9E3E6;}
	.st82{fill:#F9E2E5;}
	.st83{fill:#F9E3E5;}
	.st84{fill:#C7000C;}
	.st85{fill:#CA081A;}
	.st86{fill:#CB091A;}
	.st87{fill:#CF334E;}
	.st88{fill:#CA0819;}
	.st89{fill:#00086C;}
	.st90{fill:#CF354F;}
	.st91{fill:#CF3650;}
	.st92{fill:#D03750;}
	.st93{fill:#CF3550;}
	.st94{fill:#D03751;}
	.st95{fill:#CF3751;}
	.st96{fill:#CC0F21;}
	.st97{fill:#D03952;}
	.st98{fill:#CA0719;}
	.st99{fill:#D0364F;}
	.st100{fill:#CF3852;}
	.st101{fill:#D13850;}
	.st102{fill:#D13B54;}
</style>
	<g>
	<g>
		<path class="st0" d="M0.1,257.1c0-84.7,0-169.4-0.1-254C0,0.4,0.5,0,2.2,0C86.8,0.1,171.4,0.1,256,0.1c0.2,0.3,0.4,0.7,0.5,1.1
			c0.5,8.8,0.1,17.6,0.2,26.4c0,2.5,0,4.9,0,7.4c0,0.7,0,1.3,0,2c0,0.4,0,0.9-0.1,1.3c-0.4,1.8-0.4,3.7-0.4,5.6c0,7.9,0,15.9,0,23.8
			c0,1.8,0.1,3.5,0.4,5.3c0,0.4,0.1,0.9,0.1,1.3c0,11.5,0,23,0,34.5c0,0.4,0,0.9,0,1.3c0,0.4,0,0.9-0.1,1.3
			c-0.2,1.4-0.4,2.7-0.4,4.2c0,8.9,0,17.9,0,26.8c0,1.2,0,2.4,0.3,3.5c0.1,0.4,0.2,0.9,0.2,1.3c0,0.7,0,1.3,0,2
			c0,11.2,0,22.4,0,33.6c0,0.4,0,0.9,0,1.3c0,0.4,0,0.9-0.1,1.3c-0.3,1.6-0.4,3.2-0.4,4.9c0,8.4,0,16.8,0,25.1c0,1.4,0,2.8,0.3,4.2
			c0.1,0.4,0.1,0.9,0.1,1.3c0,0.4,0,0.9,0,1.3c0,0.5,0,0.9,0,1.4c0,9.6,0,19.2,0,28.7c0,1.6,0.2,3.4-0.7,4.7
			c-1.5,1.3-3.1,0.8-4.6,0.8c-68.8,0-137.5,0-206.3,0c-13.8,0-27.6,0-41.5,0C2.4,258.1,1.1,258.5,0.1,257.1z"/>
		<path class="st1" d="M256.1,222.2c0-0.2,0-0.5,0-0.7c1.3-1.8,2.9-1.4,4.5-1.4c22.5,0,45.1,0,67.6,0c2.9,0,5.8-0.4,8.7,0.1
			c5.6,0.8,10.5-1.6,15.1-5.7c2.1-1.9,4.3-3.6,6.7-4.8c1.2-0.6,2.7,0.2,3.6-1.8c1.8-3.1,4.4-4.1,6.9-5.5c0.9-0.4,2.2,0.2,2.7-1.7
			c1.9-3.1,4.5-4.3,7.1-5.6c1.4-0.1,2.6-1.3,4-1.1c84.5,0,168.9,0,253.4,0c1.2,0,2.5-0.4,3.6,1c0,29.9,0,59.8,0,89.7
			c-1.2,1.2-2.6,0.7-3.9,0.7c-92.5,0-185,0-277.4,0c-1.3,0-2.7,0-4,0c2.5-0.1,5,0,7.5,0c91.3,0,182.6,0,274,0c1.3,0,2.7-0.5,3.9,0.7
			c0,0.2,0,0.5,0,0.7c-0.8,1.2-1.9,1.3-3,1.4c-1.2,0-2.3,0-3.5,0c-91.5,0-182.9,0-274.4,0c-5.4,0-5-0.4-5,7.1
			c0,59.1,0,118.2,0,177.3c0,2.4,0.4,5-1,7.1c-0.2,0-0.3,0-0.5,0c-0.7-1.7-0.5-3.7-0.5-5.6c0-60.7,0-121.4,0-182
			c0,60.3,0,120.6,0,180.9c0,1.8,0,3.6,0.1,5.3c0.1,0.5,0.1,0.9-0.1,1.3c-21.3,0-42.7,0-64,0c-0.1-0.4-0.2-0.9-0.1-1.3
			c0.1-6.6,0-13.3,0-19.9c0-54.3,0-108.6,0-162.9c0-1.4-0.1-2.8,0.1-4.3c-0.1,1.4-0.1,2.8-0.1,4.3c0,59.5,0,119.1,0,178.6
			c0,1.9,0.3,3.8-0.5,5.6c-0.2,0-0.3,0-0.5,0c-1.3-2-1-4.4-1-6.8c0-33.2,0-66.4,0-99.7c0-26.6,0-53.2,0-79.7c0-5.3-0.1-5.4-3.8-5.4
			c-6.7,0-13.3,0-20,0c-1.1,0-2.2,0.1-3.2-0.5c-0.9-0.5-1.5-1.3-0.4-2.5c8.1,0.5,16.3-0.1,24.4,0.3c-7.1-0.2-14.2-0.2-21.3,0
			c-0.7,0.3-0.9-0.3-1-1.2c0.2-1.2,0.8-1.8,1.4-2.3c10.8-7.8,21.3-16.6,32.3-23.9c1.8-1,3.7-2.1,5.2-3.9c1.3-1.2,2.8-1.8,4.1-2.9
			c1.9-1.3,3.8-2.3,5.4-4.2c1.3-1.2,2.8-1.8,4.1-2.9c1.9-1.3,3.8-2.3,5.4-4.2c1.3-1.2,2.8-1.8,4.1-2.9c1.9-1.3,3.8-2.3,5.4-4.2
			c1.3-1.2,2.8-1.8,4.1-2.9c1.8-1.3,3.8-2.3,5.4-4.2c0.5-1.2,2.1-0.4,2.2-2.4c-1-0.3-2-0.2-3-0.2c-25.6,0-51.3,0-76.9,0
			C258.6,223.2,257.2,223.7,256.1,222.2z"/>
		<path class="st2" d="M369.5,203.1c-2.5,1.6-4.9,3.3-7.2,5.4c-0.6,1.1-1.3,1.7-2.3,1.7c-4.5,3.3-9,6.6-13.5,9.9
			c-1.3,1-2.5,1.4-4,1.4c-28.8-0.1-57.6,0-86.4,0c-0.1-0.3-0.1-0.5-0.2-0.8c-0.3-11.9-0.3-23.7,0-35.6c0.1-0.2,0.1-0.4,0.1-0.6
			c1.2-1.7,2.8-1.1,4.3-1.1c43,0,85.9,0,128.9,0c1.2,0,2.3,0,3.5-0.1c1.8-0.4,3.5-1.6,5.1-2.9c12.9-9.8,25.8-19.5,38.8-29
			c1-0.8,2-1.6,3-2.5c0.9-0.6,1.8-0.8,2.7-1.2c0.8-0.2,1.5-0.8,2.2-1.4c1.8-1.2,3.7-2.4,5.4-4c0.7-0.5,1.5-0.7,2.1-1.5
			c0.6-0.8,1.4-0.9,2.1-1.5c1.7-1.6,3.7-2.5,5.4-4.1c0.7-0.5,1.5-0.7,2.1-1.5c0.6-0.8,1.4-0.9,2.1-1.5c1.7-1.6,3.7-2.5,5.4-4.1
			c0.7-0.5,1.5-0.7,2.1-1.5c0.6-0.8,1.4-0.9,2.1-1.5c1.7-1.6,3.7-2.5,5.4-4.1c0.7-0.5,1.5-0.7,2.1-1.5c0.6-0.8,1.4-0.9,2.1-1.5
			c1.1-1,2.3-1.7,3.5-2.6c-1.2,0.9-2.5,1.6-3.6,2.7c-0.7,0.5-1.5,0.7-2.1,1.5c-0.6,0.8-1.4,0.9-2.1,1.5c-1.7,1.6-3.7,2.5-5.4,4.1
			c-0.7,0.5-1.5,0.7-2.1,1.5c-0.6,0.8-1.4,0.9-2.1,1.5c-1.7,1.6-3.7,2.5-5.4,4.1c-0.7,0.5-1.5,0.7-2.1,1.5c-0.6,0.8-1.4,0.9-2.1,1.5
			c-1.7,1.6-3.7,2.5-5.4,4.1c-0.7,0.5-1.5,0.7-2.1,1.5c-0.6,0.8-1.5,0.9-2.1,1.5c-1.8,1.4-3.6,2.7-5.5,3.9c-0.8,0.8-1.7,1.3-2.7,1.5
			c-1.1,0.5-2.3,0.4-3.5,0.4c-59.4,0-118.8,0-178.2,0c-1.3,0-2.7,0.4-3.9-0.8c0-0.3-0.1-0.6-0.1-0.9c-0.3-11.9-0.3-23.7,0-35.6
			c0.1-0.1,0.2-0.2,0.1-0.4c0.5-1.2,1.3-1.3,2.2-1.3c0.8,0,1.7,0,2.5,0c75.5,0,151,0,226.5,0c1.4,0,2.8,0,4.2,0.1
			c1.1,0.1,2.1-0.8,3-1.5c11.7-8.8,23.3-17.6,35-26.3c2.7-2,5.6-3.9,8.1-6.5c-92.1,0-184.2,0-276.3,0c-1.5,0-3,0.3-4.5-0.3
			c-0.3-0.2-0.6-0.5-0.8-0.9c0-0.2-0.1-0.4-0.2-0.6c-0.3-11.9-0.3-23.7,0-35.6c0-0.3,0.1-0.5,0.1-0.8c0.6-0.9,1.5-1,2.3-1
			c1.2,0,2.3,0,3.5,0c107.9,0,215.9,0,323.8,0c1.5,0,3,0.2,4.5-0.2c8.9-5.8,17.4-12.8,26.1-19.2c6.7-5,13.4-9.9,20-15.1
			c1-0.8,2.1-0.6,3.1-1.4c1,0.6,0.5,1.9,0.5,2.8c0,16.6,0,33.2,0,49.8c-0.6,2.2-2,3-3.4,4c-17.2,12.7-34.3,25.8-51.6,38.5
			c-0.6,0.4-1.2,0.9-1.7,1.4c-0.9,0.6-1.7,1.2-2.6,1.9c-5.5,4-11,8.2-16.5,12.4c-0.9,0.6-1.7,1.2-2.6,1.9
			c-20.9,15.5-41.6,31.4-62.5,46.7c-0.4,0.3-0.9,0.6-1.2,1.2c1-0.1,2-0.1,3-0.1c44.9,0,89.7,0,134.6,0c1.5,0,3-0.6,4.3,1
			c0,10.4,0,20.9,0,31.3c-1.1,1.5-2.5,1-3.8,1c-23.7,0-47.5,0-71.2,0c-59.1,0-118.3,0-177.4,0c-1.5,0-3,0-4.5,0.1
			c-1.4,0.1-2.6,1.6-4,1.8c-2.5,1.6-4.9,3.3-7.2,5.4C371.2,202.5,370.4,203.1,369.5,203.1z"/>
		<path class="st2" d="M353,479.9c0-1.1-0.1-2.1-0.1-3.2c0-62,0-124.1,0-186.1c0-2.7,0.2-3.8,2.5-3.8c94.2,0.1,188.4,0.1,282.6,0.1
			c0.7,0,1.3,0.1,2,0.1c0,10.4,0,20.9,0,31.3c-1,1.3-2.2,1-3.3,1c-46.1,0-92.3,0.1-138.4,0c-0.1,0-0.2,0-0.2,0.1
			c3.8,3.3,7.8,5.9,11.7,8.8c17.3,13,34.6,26,51.9,38.9c0.9,0.6,1.7,1.2,2.6,1.9c5.4,4.3,10.9,8.4,16.5,12.4
			c0.8,0.7,1.7,1.2,2.6,1.9c7,5.5,14.1,10.7,21.1,16c11,8.2,22,16.6,33.1,24.7c1.1,0.8,2,1.8,2.5,3.3c0,5.7,0,11.4,0,17.1
			c-1.1,1.2-2.1,0.1-3-0.6c-9.9-7.5-19.9-14.9-29.8-22.4c-7.1-5.4-14.3-10.8-21.4-16.1c-17.3-12.9-34.6-26-51.9-38.9
			c-0.9-0.6-1.7-1.3-2.6-1.9c-5.4-4.3-10.9-8.3-16.4-12.4c-0.8-0.6-1.7-1.2-2.5-1.8c-2.2-2.1-4.7-3.6-7-5.3
			c-0.8-0.6-1.7-1.2-2.5-1.8c-2.2-2.1-4.7-3.6-7-5.3c-0.8-0.6-1.7-1.2-2.5-1.8c-2.2-2.1-4.7-3.6-7-5.3c-0.8-0.6-1.7-1.2-2.5-1.8
			c-2.2-2.1-4.7-3.6-7-5.3c-0.7-0.6-1.5-1.1-2.2-1.7c-1.3-1.1-2.6-2-4-2.4c-13.2-0.1-26.4,0-39.5,0c-1.2,0-2.5,0-3.7-0.1
			c0.2,0.1,0.4,0.2,0.6,0.4c2.6,2.5,5.6,4.2,8.3,6.2c1.4,1,2.6,2.4,4,3.2c21.6,16.1,43.2,32.3,64.7,48.6
			c9.7,7.3,19.4,14.6,29.2,21.8c11,8.2,21.9,16.5,32.9,24.6c0.9,0.6,1.7,1.2,2.6,1.9c5.4,4.3,10.9,8.3,16.4,12.4
			c0.8,0.6,1.7,1.2,2.5,1.8c2.2,2.1,4.7,3.6,7,5.3c0.8,0.6,1.7,1.2,2.5,1.8c2.2,2.1,4.7,3.6,7,5.3c0.8,0.6,1.7,1.2,2.5,1.8
			c2.2,2.1,4.7,3.6,7,5.3c1.3,1,2.5,2.3,3.9,3.1c1.8,1.4,3.7,2.7,5.6,4c1.3,1,2.5,2.3,3.9,3.1c1.8,1.4,3.7,2.7,5.6,4
			c1.3,1,2.5,2.3,3.9,3.1c0.7,0.8,1.9,0.9,1.8,2.8c-23.5,0-47,0-70.5,0c-1.7-0.7-3.4-1.8-5-3c-11.3-8.3-22.6-16.9-33.8-25.3
			c-12.6-9.4-25.2-18.9-37.8-28.3c-0.8-0.6-1.7-1.2-2.5-1.9c-2.2-2.1-4.7-3.6-7.1-5.3c-0.8-0.6-1.7-1.2-2.5-1.8
			c-2.2-2.1-4.7-3.6-7.1-5.3c-0.8-0.7-1.7-1.2-2.5-1.8c-7.2-5.7-14.5-11-21.8-16.5c-21.4-16.1-42.9-32-64.2-48.2
			c-2.9-2.2-5.7-4.4-8.7-6.2c-0.2,0.1-0.4,0.4-0.5,0.7c-0.3,1.5-0.1,3.1-0.1,4.6c0,44.2,0,88.4,0,132.6c0,2,0.4,4.1-0.7,5.8
			C367.3,479.9,360.1,479.9,353,479.9z"/>
		<path class="st2" d="M259,285.8c-0.3,0.2-0.9,0.5-0.5,1c0.4,0.4,1.1,0.1,1.7,0.1c8.2,0,16.5,0,24.7,0c1.5,0,2.2,0.2,2.2,2.8
			c-0.1,63.1,0,126.2-0.1,189.3c0,0.4-0.1,0.7-0.1,1.1c-7.2,0-14.3,0-21.5,0c-1.1-1.7-0.7-3.8-0.7-5.8c0-44.1,0-88.2,0-132.3
			c0-1.7,0.1-3.3-0.2-4.9c-0.1-0.3-0.3-0.5-0.5-0.6c-2.8,1.5-5.4,3.7-8,5.7c-18.9,14.3-38,28.4-56.9,42.7
			c-9.9,7.5-19.9,14.8-29.7,22.5c-0.8,0.6-1.7,1.2-2.5,1.8c-2.4,1.7-4.8,3.2-7.1,5.3c-0.8,0.6-1.7,1.2-2.5,1.8
			c-2.4,1.7-4.8,3.2-7.1,5.3c-0.8,0.6-1.7,1.2-2.5,1.9c-20.6,15.3-41.1,30.9-61.7,46.2c-3.8,2.9-7.8,5.5-11.5,8.7
			c-1.1,0.9-2.4,0.9-3.5,1.8c-7.8,0-15.7,0-23.5,0c-0.1-1.8,1-2,1.7-2.9c1.3-1.2,2.7-2,4-3.1c2.5-1.8,5-3.4,7.4-5.4
			c0.7-0.6,1.4-1.2,2.1-1.7c2.4-1.7,4.8-3.2,7-5.3c0.8-0.6,1.7-1.2,2.5-1.8c2.4-1.7,4.8-3.2,7-5.3c0.8-0.6,1.7-1.2,2.5-1.8
			c2.4-1.7,4.8-3.2,7-5.3c0.8-0.6,1.7-1.2,2.5-1.9c8.7-6.4,17.3-12.9,25.9-19.5c0.9-0.6,1.7-1.2,2.6-1.9
			c8.7-6.4,17.3-12.9,25.9-19.5c0.9-0.6,1.7-1.2,2.6-1.9c32.8-24.5,65.5-49.1,98.2-73.7c1.3-1.2,2.8-2.1,4.1-3.1
			c2.8-2.1,5.8-3.9,8.4-6.3c0.2-0.1,0.4-0.2,0.5-0.5c-2.2,0.5-4.3,0.2-6.5,0.2c-11,0-21.9,0-32.9,0c-1.1,0-2.2,0.2-3.2-0.3
			c-0.2-0.2-0.5-0.4-0.6-0.7c-0.1-2.2,1.2-2.6,2.2-3.4c6.1-4.8,12.3-9.3,18.5-13.9c1.8-1.3,3.7-2.5,5.2-4.5c-79,0-157.9,0-236.8,0
			c-1.5,0-3,0.2-4.5-0.3c-0.3-0.2-0.6-0.5-0.8-0.8c0-12.3,0-24.7,0-37c1.2-1.2,2.6-0.7,3.9-0.7c82.7,0,165.5,0,248.2,0
			c1.2,0,2.5,0.1,3.7-0.1c3.5-0.5,7-0.2,10.4-0.2c8.5-0.1,17.1-0.1,25.6,0c1,0,2.4-0.9,2.8,1.6c-10.2,7.6-20.3,15.1-30.5,22.7
			c-1.1,0.8-2.2,1.6-3.3,2.4C260.5,285.2,260.1,286.2,259,285.8z"/>
		<path class="st3" d="M375.5,334.7c10.4,7.7,20.7,15.3,31.1,23.1c20.8,15.6,41.7,31.2,62.5,46.9c0.7,0.5,1.4,1.2,2.1,1.8
			c0.5,1.3,1.4,1.5,2.3,1.7c2.5,1.6,4.9,3.3,7.2,5.4c0.5,1.3,1.4,1.5,2.3,1.7c2.5,1.6,4.9,3.3,7.2,5.4c0.5,1.3,1.4,1.5,2.3,1.7
			c13,9.7,26,19.4,39,29.1c11.9,8.9,23.8,17.8,35.7,26.8c0.6,0.5,1.4,0.7,1.8,1.7c-64.8,0-129.6,0-194.4,0c0.1-1.4,0.2-2.8,0.2-4.2
			c0-46,0-92,0-138c0-1.1-0.5-2.5,0.5-3.5c0,0,0.1,0.1,0.2,0.1C375.4,334.5,375.4,334.6,375.5,334.7c-0.5,1.3-0.2,2.8-0.2,4.2
			c0,44.7,0,89.4,0,134.1c0,1.3,0.2,2.6,0,3.2c0-0.4,0-1.5,0-2.5c0-45.2,0-90.3,0-135.5C375.2,337,375,335.8,375.5,334.7z"/>
		<path class="st3" d="M149.8,420.7c2.3-2.1,4.7-3.9,7.2-5.5c0.9-0.1,1.8-0.4,2.3-1.7c2.3-2.1,4.7-3.9,7.2-5.5
			c0.9-0.1,1.8-0.4,2.3-1.7c9.7-7.4,19.4-14.8,29.2-22.1c21.6-16.2,43.1-32.4,64.7-48.5c0.6-0.4,1.2-0.8,1.8-1.1
			c0.4,1,0.2,2.1,0.2,3.1c0,45.4,0,90.8,0,136.2c0,0.9,0,1.9,0,2.1c-0.1-0.6,0-1.9,0-3.2c0-44.7,0-89.4,0-134.1
			c0-1.4,0.3-2.8-0.3-4.2c0.4-0.7,0.7-0.6,0.8,0.2c0.1,0.9,0,1.9,0,2.8c0,46,0,92,0,138c0,1.4,0.1,2.8,0.2,4.2
			c-64.8,0-129.6,0-194.4,0c0.7-1.4,1.9-1.8,2.9-2.6c23.8-17.9,47.6-35.7,71.3-53.6c0.7-0.5,1.5-1,2.2-1.5
			C148.5,422.2,149.3,421.9,149.8,420.7z"/>
		<path class="st4" d="M639.4,0.1c-3.2,3.3-6.9,5.5-10.4,8.2c-11.9,9-23.9,17.9-35.8,26.9c-0.6,0.4-1.2,0.8-1.8,1.2
			c-1.3,0-2.7,0.1-4,0.1c-109,0-217.9,0-326.9,0c-1.3,0-2.7,0.4-3.9-0.4c-0.6-1.2-0.3-2.5-0.3-3.8c-0.1-10.4,0.2-20.9-0.2-31.3
			c0-0.3-0.1-0.5-0.1-0.8C383.8,0.1,511.6,0.1,639.4,0.1z"/>
		<path class="st1" d="M247,329.7c-10.2,7.7-20.4,15.5-30.6,23.1c-22.1,16.6-44.3,33.2-66.4,49.8c-0.5,0.4-1,0.7-1.6,1
			c-0.9,0.1-1.8,0.4-2.3,1.7c-8.6,6.9-17.4,13.4-26.2,19.7c-0.9,0.1-1.8,0.4-2.3,1.7c-8.6,6.9-17.4,13.4-26.2,19.7
			c-0.9,0.1-1.8,0.4-2.3,1.7c-2.3,2.1-4.7,3.9-7.2,5.5c-0.9,0.1-1.8,0.4-2.3,1.7c-2.3,2.1-4.7,3.9-7.2,5.5c-0.9,0.1-1.8,0.4-2.3,1.7
			c-2.3,2.1-4.7,3.9-7.2,5.5c-0.9-0.1-1.6,0.4-2,1.5c-2.4,2.1-4.9,4-7.5,5.6c-1.5,0.4-2.9,1.3-4,2.9c-0.7,0.7-1.4,1.4-2,2.1
			c-15.5,0-31,0-46.5,0c-0.2-1.1,0.4-1.5,0.8-2c2.4-1.9,5-3.1,7.2-5.6c0.7-0.8,1.7-1,2.4-1.7c1.7-1.2,3.4-2.3,5-3.8
			c0.2-0.2,0.4-0.3,0.6-0.5c0.6-0.3,1.2-0.7,1.6-1.4c0.7-0.6,1.6-0.9,2.4-1.6c2.3-1.8,4.9-3.1,7-5.4c0.7-0.8,1.7-1,2.4-1.7
			c1.7-1.2,3.4-2.3,5-3.8c0.2-0.2,0.4-0.3,0.6-0.5c0.6-0.3,1.2-0.7,1.6-1.4c0.7-0.6,1.6-0.9,2.3-1.6c1.8-1.4,3.7-2.3,5.3-4.1
			c0,0,0-0.2-0.1-0.3c0-0.1-0.1-0.1-0.2-0.2c-13.8-0.2-27.6,0-41.4-0.1c-1.2,0-2.5,0.4-3.6-1c0-0.2,0-0.5,0-0.7
			c1.2-1.6,2.6-1.2,4-1.2c13.9,0,27.8-0.1,41.7,0c2.7,0,5.1-0.9,7.4-2.7c13.3-10.4,26.8-20,40.1-30.4c1.3-1,2.7-1.8,4.1-2.7
			c1.7-0.8,3.4-1.9,4.8-3.4c0.7-0.6,1.4-1,2.1-1.6c0.6-0.4,1.2-0.8,1.8-1.3c0.2-0.2,0.4-0.3,0.6-0.4c1.7-1.2,3.5-2.3,5.1-3.9
			c1.3-1.2,2.7-2.1,4.1-3c1.8-1.3,3.7-2.4,5.4-4.1c0.7-0.6,1.4-1.1,2.1-1.6c2.5-1.7,5-3.3,7.3-5.5c0.7-0.6,1.4-1.1,2.1-1.6
			c2.5-1.7,5-3.3,7.3-5.4c0.7-0.6,1.4-1,2.1-1.5c0.6-0.4,1.2-0.8,1.7-1.2c0.2-0.1,0.3-0.3,0.5-0.4c0.2-0.4,0.2,0.3,0.2-0.2
			c-0.1-0.4-0.3-0.1-0.5-0.2c-46.6,0-93.2,0-139.8,0c-1.5,0-3,0.6-4.3-1c0-0.2,0-0.5,0-0.7c1.3-1.7,3-1.4,4.5-1.4
			c19.8,0,39.7,0,59.5,0c27.2,0,54.3-0.1,81.5,0.1c1.6,0,2.9-0.6,4.3-1.5c4.6-2.9,8.7-7,13.4-9.6c1.9-0.4,3.9-0.7,5.2-3.4
			c4.8-4.2,9.6-8.2,14.8-11.1c1.6-0.2,3.1-1,4.1-3c1.6-2.1,3.4-3.3,5.5-4.1c0.8,0,1.5-0.3,2.1-0.8c0.3-0.2,0.5-0.5,0.2-0.2
			c-0.1-0.2-0.3-0.3-0.5-0.2c-63.4,0-126.8,0-190.2,0c-1.5,0-3,0.6-4.3-1c0-0.2,0-0.5,0-0.7c1.3-1.6,2.9-1,4.3-1
			c44.2,0,88.4,0,132.7,0c19.7,0,39.3,0,59,0c1.1-0.1,2.1-0.4,3.1-1c1.8-1,3.6-2.3,5.3-3.8c0.2-0.2,0.4-0.3,0.6-0.5
			c0.7-0.3,1.4-0.9,2-1.5c0.7-0.6,1.4-1.1,2.1-1.6c1.6-1,3.1-2.2,4.7-3.3c0.8-0.6,1.7-1.1,2.6-0.5c0.3,0.2,0.5,0.3,0.8,0.4
			c13.1,0.1,26.2,0,39.3,0.1c1,0,2.4-0.9,2.9,1.4c-2.8,2.1-5.7,4.2-8.5,6.4C249.4,327.2,248.1,328,247,329.7z"/>
		<path class="st3" d="M639.9,427.2c-16.8-12.6-33.5-25.2-50.2-37.8c-2.3-1.8-4.6-3.6-6.9-5.4c-0.5-1.3-1.4-1.5-2.3-1.7
			c-5.7-4-11.2-8.1-16.7-12.6c-0.5-1.3-1.4-1.5-2.3-1.7c-13.5-10.1-27.1-20.1-40.6-30.3c-7.9-5.9-15.7-11.9-23.5-17.8
			c-0.1-1,0.2-1.2,0.8-1c1.2,0.3,2.5,0.1,3.7,0.1c44.8,0,89.6,0,134.3,0c1.2,0,2.5-0.5,3.6,0.7C639.9,355.6,639.9,391.4,639.9,427.2
			z"/>
		<path class="st3" d="M563.7,110.3c5.5-4.5,11.1-8.6,16.7-12.6c0.9-0.1,1.8-0.4,2.3-1.7c10.2-7.7,20.4-15.5,30.7-23.2
			c8.8-6.7,17.7-13.4,26.5-20c0,35.8,0,71.7,0,107.5c-1,1.1-2.1,0.7-3.1,0.7c-45.7,0-91.4,0-137.1,0c-0.5,0-1,0-1.5,0.1
			c-0.6,0.2-0.9-0.1-0.8-1c12.4-9.4,24.8-18.8,37.1-28.1c8.9-6.7,17.9-13.3,26.9-20C562.3,111.8,563.2,111.5,563.7,110.3z"/>
		<path class="st4" d="M199.5,330.5c-0.7,1.1-1.6,1.5-2.6,1.3c-0.4-0.3-0.9-0.5-1.4-0.6c-52.5-0.1-104.9,0-157.4,0
			c-11.7,0-23.3,0-35,0c-1.1,0-2.2,0.4-3.1-0.7c0-11.6,0-23.3,0-34.9c0.2,0,0.3,0,0.5,0.1c1,0.6,2.1,0.3,3.2,0.3
			c78.8,0,157.6,0,236.4,0.1c1.2,0,2.5-0.8,3.4,1.1c-8.7,6.6-17.3,13.2-26,19.7c-0.4,0.3-0.7,0.6-1.1,0.9c-2.5,2.1-5.2,3.4-7.6,5.7
			c-0.5,0.8-1.2,1.2-2,1.3c-0.6,0.8-1.4,0.9-2,1.4l0,0C203.3,327.9,201.2,328.7,199.5,330.5z"/>
		<path class="st1" d="M595.4,446.4c-2.5-1.6-4.9-3.3-7.2-5.4c-0.5-1.3-1.4-1.6-2.3-1.7c-5.7-4-11.2-8.1-16.7-12.6
			c-0.5-1.3-1.4-1.6-2.3-1.7c-12.7-9.4-25.3-18.8-38-28.3c-29.1-21.8-58.1-43.6-87.1-65.4c-0.7-0.5-1.3-1.1-1.9-1.6
			c-1.2-1.3-2.4-2.7-4-2.9c-2.8-2.1-5.7-4.2-8.5-6.4c0.4-2.3,1.8-1.4,2.7-1.4c12.2-0.1,24.5,0,36.7-0.1c1.1,0,2.2,0,3.2,0
			c0.5,0,0.9-0.3,1.3-0.5c1.2,0.9,2.3,1.8,3.5,2.7c0.4,1.1,1.1,1.6,2,1.5c2.5,1.5,4.9,3.3,7.2,5.4c0.5,1.3,1.4,1.6,2.3,1.7
			c2.5,1.6,4.9,3.3,7.2,5.5c0.5,1.3,1.4,1.6,2.3,1.7c2.5,1.6,4.9,3.3,7.2,5.4c0.5,1.3,1.4,1.6,2.3,1.7c2.5,1.6,4.9,3.3,7.2,5.4
			c0.5,1.3,1.4,1.6,2.3,1.7c5.7,4,11.2,8.1,16.7,12.6c0.5,1.3,1.4,1.6,2.3,1.7c13.2,9.8,26.4,19.6,39.5,29.5
			c21.4,16,42.8,32.1,64.2,48.1c0.7,0.5,1.4,1.4,2.3,1.4c0,11.2,0,22.3,0,33.5c0,0.7,0.6,1.9-0.5,2.1c-0.7-0.7-1.4-1.4-2-2.1
			c-1.2-1.3-2.4-2.7-4-2.9c-1.9-1.1-3.8-2.5-5.5-4.2c-1.2-1.3-2.4-2.7-4-2.9c-1.9-1.1-3.8-2.5-5.5-4.2c-1.2-1.3-2.4-2.7-4-2.9
			c-2.5-1.6-4.9-3.3-7.2-5.5c-0.5-1.3-1.4-1.6-2.3-1.7c-2.5-1.6-4.9-3.3-7.2-5.4C597.2,446.8,596.3,446.5,595.4,446.4z"/>
		<path class="st2" d="M0.1,332.6c0.8-0.1,1.7-0.2,2.5-0.2c63.6,0,127.2,0,190.8,0c1,0,2.2-0.8,3,0.7c-1,1.3-2,2.1-3.3,2.3
			c-1.9,1.1-3.8,2.5-5.5,4.2c-1.2,1.4-2.4,2.7-4,2.9c-5.1,3.5-10.1,7.2-15,11.3c-1.2,1.4-2.4,2.7-4,2.9c-4.7,3.5-9.4,6.9-14.1,10.5
			c-1.7,1.3-3.4,1.9-5.4,1.9c-47.3-0.1-94.6-0.1-141.9-0.1c-1,0-2-0.2-3-0.3c0-11.6,0-23.3,0-34.9c0.9-0.7,2-0.3,2.9-0.3
			c63.4,0,126.9,0,190.3,0c-63.4,0-126.9,0-190.3,0c-1,0-2,0.3-2.9-0.3C0.1,333,0.1,332.8,0.1,332.6z"/>
		<path class="st4" d="M133,380.3c-0.5,0.8-1.2,1.2-2,1.4c-2.4,2.2-5.2,3.4-7.5,5.8c-0.5,0.8-1.2,1.2-2,1.4
			c-1.7,1.7-3.8,2.5-5.5,4.3c-1.3,1.1-2.5,2.3-4,2.8c-1.7,1.7-3.8,2.6-5.5,4.3l0,0c-0.7,0.5-1.5,0.6-2,1.5c-0.5,0.8-1.2,1.2-2,1.4
			c-1.5,1.2-2.9,2.7-4.7,3.1c-0.3,0-0.6,0-0.9,0.1c-30.1,0.1-60.1,0-90.2,0.1c-1.9,0-3.8,0-5.7,0.1c-0.3,0-0.6-0.1-0.9-0.4
			c0-11.6,0-23.3,0-34.9c0.9-1,1.9-0.7,2.9-0.7c46.1,0,92.2,0,138.3,0c0.8,0,1.7-0.1,2.5,0.3c0.9,2-0.9,1.6-1.2,2.6
			c-0.5,0.8-1.2,1.2-2,1.4C138.2,376.8,135.4,378,133,380.3z"/>
		<path class="st2" d="M0.1,405.9c0.2,0,0.3,0,0.5,0c0.8-0.6,1.6-0.3,2.4-0.3c30.9,0,61.7,0,92.6,0c0.8,0,1.7-0.3,2.4,0.4L98,406
			c0.2,0.1,0.3,0.2,0.2,0.4c-0.1,0.1-0.1,0.2-0.2,0.2c-15.6,11.7-31.3,23.4-46.9,35.2c-1.1,0.9-2.3,1.2-3.6,1.2
			c-15.8-0.1-31.6-0.1-47.5-0.1C0.1,430.6,0.1,418.2,0.1,405.9z"/>
		<path class="st4" d="M2.1,478.6c-0.3,0.5-0.7,0.9-1,1.4c-1.5,0.4-1-1.2-1-2.1c0-11.2,0-22.3,0-33.5c0.4-0.5,1-0.3,1.4-0.3
			c14.6,0,29.1-0.1,43.7,0c1.2,1.3,0.3,1.8-0.4,2.4c-1.6,1.3-3.3,2.1-4.7,3.6c-0.4,1.1-1.4,0.8-2,1.3c-0.5,0.9-1.4,0.9-2,1.5l0,0
			c-1.7,1.7-3.8,2.5-5.5,4.3c-0.4,1.1-1.4,0.8-2,1.3c-2.4,2.3-5.2,3.5-7.5,5.8c-0.4,1.1-1.4,0.8-2,1.3c-0.5,0.9-1.4,0.9-2,1.5l0,0
			c-1.7,1.7-3.8,2.5-5.5,4.3c-0.4,1.1-1.4,0.8-2,1.3C7.2,475.1,4.4,476.2,2.1,478.6z"/>
		<path class="st5" d="M382,193.7c1-1.1,2.1-0.5,3.1-0.5c83.9,0,167.9,0,251.8,0c1,0,2-0.1,3-0.2c0,0.5,0,0.9,0,1.4
			c-0.7,0.6-1.5,0.3-2.2,0.3c-84.9,0-169.7,0-254.6,0c-0.3,0-0.5,0-0.7,0C381.9,194.6,381.8,194.3,382,193.7z"/>
		<path class="st6" d="M256,258.4c-0.5,0-1,0.1-1.5,0.1c-84.8,0-169.6,0-254.4,0c0-0.5,0-0.9,0-1.4c84.1,0,168.2,0,252.3,0
			c1.2,0,2.3,0,3.5,0c0,0,0.2,0.1,0.2,0.1c0.1,0.2,0.1,0.4,0.1,0.7C256.2,258.2,256.1,258.3,256,258.4z"/>
		<path class="st7" d="M353,285.6c1-1.3,2.2-0.7,3.4-0.7c94.5,0,189,0,283.5,0c0,0.2,0,0.5,0,0.7c-0.9,0.7-1.8,0.3-2.7,0.3
			c-93.8,0-187.7,0-281.5,0C354.8,285.9,353.8,286.2,353,285.6z"/>
		<path class="st5" d="M353,285.6c95.6,0,191.3,0,286.9,0c0,0.2,0,0.5,0,0.7c-1.1,0-2.2-0.1-3.2-0.1c-93.4,0-186.9,0-280.3,0
			C355.2,286.2,354,286.7,353,285.6z"/>
		<path class="st7" d="M382,194.4c86,0,171.9,0,257.9,0c0,0.2,0,0.5,0,0.7c-86,0-171.9,0-257.9,0c-0.1-0.2-0.2-0.3-0.1-0.5
			C381.9,194.5,381.9,194.4,382,194.4z"/>
		<path class="st8" d="M196.5,331.1c0.1,0.2,0.3,0.4,0.4,0.6c-20.8,0-41.6,0-62.4,0.1c-43.7,0-87.4,0-131.1,0c-1.1,0-2.2,0-3.2,0.1
			c0-0.2,0-0.5,0-0.7c0.9-0.7,1.8-0.3,2.7-0.3c63.7,0,127.4,0,191,0C194.7,330.8,195.6,330.5,196.5,331.1z"/>
		<path class="st9" d="M196.5,331.1c-65.5,0-131,0-196.4,0c0-0.2,0-0.5,0-0.7c64.4,0,128.7,0,193.1,0
			C194.3,330.4,195.5,329.9,196.5,331.1z"/>
		<ellipse class="st10" cx="96.5" cy="333.6" rx="136.3" ry="0.5"/>
		<path class="st11" d="M497.3,160c0.2,0.3,0.4,0.6,0.6,0.9c1.4-0.8,2.8-0.3,4.2-0.3c44.9,0,89.9,0,134.8,0c1,0,2-0.3,2.9,0.3
			c0,0.2,0,0.5,0,0.7c-1,0.6-2,0.3-3,0.3c-46.4,0-92.9,0-139.3,0c-0.8,0-1.6,0-2.5,0C495.6,160.6,496.6,160.6,497.3,160z"/>
		<path class="st11" d="M497.9,319.1c-0.2,0.3-0.4,0.6-0.6,0.9c-0.7-0.5-1.5-0.9-2.2-1.4c0-0.2,0-0.4,0.1-0.6c0.9,0,1.8,0,2.7,0
			c46.4,0,92.8,0,139.3,0c0.9,0,1.8-0.3,2.7,0.3c0,0.2,0,0.5,0,0.7c-0.7,0.6-1.5,0.3-2.2,0.3c-46.1,0.1-92.2-0.1-138.3,0.1
			C498.9,319.5,498.4,319.4,497.9,319.1z"/>
		<path class="st12" d="M0.1,369.6c1.1,0,2.2,0.1,3.2,0.1c46.5,0,93,0,139.5,0c1.1,0,2.2-0.5,3.2,0.5c-0.4,0.5-0.9,0.7-1.4,0.7
			c-1.2-0.3-2.3-0.3-3.5-0.3c-46,0-92.1,0-138.1,0c-1,0-2,0.4-2.9-0.3C0.1,370,0.1,369.8,0.1,369.6z"/>
		<path class="st13" d="M0.1,370.3c47.1,0,94.2,0,141.3,0c1.2,0,2.5,0.1,3.7,0.1c0.2,0.8-0.3,1-0.6,1.3l0,0
			c-0.2,0.3-0.4,0.3-0.5-0.1c-1-1.1-2.1-0.6-3.1-0.6C94,371,47,371,0.1,371C0.1,370.8,0.1,370.5,0.1,370.3z"/>
		<path class="st14" d="M639.9,161c-47.3,0-94.6,0-141.9,0c0.4-0.7,0.9-1,1.5-1c46.8,0.7,93.6,0.1,140.4,0.3
			C639.9,160.5,639.9,160.7,639.9,161z"/>
		<path class="st14" d="M497.9,319.1c47.3,0,94.6,0,141.9,0c0,0.2,0,0.5,0,0.7c-45.8,0-91.6,0-137.4-0.1
			C501,319.7,499.3,321.1,497.9,319.1z"/>
		<path class="st15" d="M287.5,479.9c0-48.8,0-97.7,0-146.5c0-14.2,0-28.5,0-42.7c0-1-0.5-2.3,0.4-3c0.4,1.2,0.2,2.6,0.2,3.8
			c0,61.3,0,122.5,0,183.8c0,1.3,0.2,2.6-0.2,3.8c0,0.2,0,0.5,0,0.7C287.8,479.9,287.6,479.9,287.5,479.9z"/>
		<path class="st15" d="M352,287.7c0.9,0.9,0.4,2.3,0.4,3.4c0,61.4,0,122.8,0,184.2c0,1.5,0,3.1,0,4.6c-0.2,0-0.3,0-0.5,0
			c0-0.2,0-0.5,0-0.7c-0.5-1.2-0.2-2.6-0.2-3.8c0-61.3,0-122.5,0-183.8C351.7,290.3,351.5,288.9,352,287.7z"/>
		<path class="st16" d="M45.6,445c-0.8-1.2-1.9-0.7-2.8-0.7c-14.2,0-28.4,0-42.6,0c0-0.2,0-0.5,0-0.7c14.9,0,29.7,0,44.6,0
			c1,0,2-0.4,2.9,0.5C47,444.8,46.5,445.8,45.6,445z"/>
		<path class="st16" d="M256.5,35.7c110.5,0,221,0,331.5,0c1.1,0,2.3-0.5,3.4,0.6c-0.9,1.2-2.1,0.7-3.1,0.7
			c-110.7,0-221.5,0-332.2,0c0-0.5,0-0.9,0-1.4C256.2,35.3,256.4,35.3,256.5,35.7z"/>
		<path class="st8" d="M256.1,147.7c60.9,0,121.9,0,182.8,0c1.2,0,2.3-0.1,3.5-0.2c0.2,0.1,0.3,0.2,0.3,0.4c0,0.2-0.1,0.3-0.1,0.3
			c-0.8,0.5-1.7,1.1-2.5,1.6c-0.5-0.2-1-0.1-1.4,0c-1.2,0.2-2.3,0.1-3.5,0.1c-58.1,0-116.1,0-174.2,0c-1.3,0-2.7,0.2-4-0.3
			c-0.3-0.2-0.6-0.5-0.8-0.8C256.1,148.5,256.1,148.1,256.1,147.7z"/>
		<path class="st17" d="M126.5,162.5c-1.4,1.4-2.8,2.7-4.5,4.4c0.7-3.2,1.3-6,1.9-8.8c-0.2-0.8-0.7-1.3-0.8-2.1
			c-1.3-2.2-3.5-3-4.5-5.6c2.3-0.9,4.6-0.5,7-0.2c1.3-2.7,1.4-6,2.5-9.4c1.2,3.3,1.2,6.7,2.6,9.4c2.3-0.3,4.7-0.7,7,0.2
			c-1.1,2.6-3.2,3.3-4.5,5.6c-0.1,0.8-0.7,1.3-0.8,2.1c0.6,2.7,1.2,5.5,1.9,8.7c-1.7-1.6-3.1-3-4.5-4.3
			C128.5,162,127.5,162,126.5,162.5z"/>
		<path class="st17" d="M83,150.2c1.4-2.7,1.4-6.1,2.6-9.3c1.1,3.2,1.2,6.5,2.4,9.2c2.3-0.2,4.7-0.6,7,0.2c-1,2.5-2.8,3.5-4.3,5.1
			c-1,1.1-1.4,2-0.8,3.8c0.7,2.3,1.1,4.7,1.6,7.1c-1.8,0.7-2.3-1.8-3.2-2.9c-1.9-2.2-3.4-2.8-5.2-0.1c-0.9,1.3-2.1,2.2-3.5,3.7
			c0.6-2.8,1-5.1,1.6-7.2c0.6-2.2,0.1-3.4-1.1-4.8c-1.4-1.5-3-2.4-4-4.6C78.4,149.5,80.7,149.9,83,150.2z"/>
		<path class="st18" d="M116.5,21c-0.1,0.2-0.2,0.4-0.3,0.5c-1.8,2-4.5,3.6-5.2,6.2c-0.6,2.4,1,5.9,1.7,9c-2.3-0.2-3.3-3.2-5-4.4
			c-1.1-0.7-1.5-0.6-2.3,0.2c-1.4,1.6-2.9,3.1-4.7,4.9c0.7-3.2,1.2-5.7,1.8-8.3c0-1.3-0.2-2.5-1-3.3c-1.2-1.8-3.4-2.2-4-5.2
			c2.3-1,4.7,0.2,7-0.7c0.7-2.8,1.4-5.6,2.2-8.5c0.3,0.8,0.6,1.4,0.8,2.1c0.7,1.2,0.9,2.7,1,4.3c0,0.6,0,1.2,0.4,1.6
			c1.2,1.5,2.7,0.6,4,0.9C114.1,20.6,115.4,19.6,116.5,21z"/>
		<path class="st17" d="M168,150.1c1.1-2.7,1.4-5.9,2.3-9.1c1.4,2.8,1.2,6.5,2.7,9.2c2.3-0.4,4.6-0.7,7,0.2c-1.1,2.3-2.9,3.5-4.4,5
			c-1.1,1.1-1.3,2.1-0.8,3.9c0.6,2.3,1.1,4.6,1.8,7.7c-1.2-1.2-2-2.1-2.9-2.9c-3.5-3.6-3.5-3.6-6.7,0.3c-0.7,0.8-1.3,1.8-2.2,2.1
			c0-0.2-0.2-0.5-0.1-0.6c0.6-2.9,2-6,1.7-8.7c-0.3-2.6-3-3.6-4.6-5.5c-0.3-0.4-0.6-0.8-0.7-1.4C163.4,149.5,165.7,149.9,168,150.1z
			"/>
		<path class="st17" d="M52.5,150.3c-0.9,2.4-2.6,3.4-4.1,4.9c-1.2,1.2-1.6,2.3-1,4.3c0.7,2.1,1,4.4,1.7,7.4
			c-1.5-1.5-2.7-2.4-3.6-3.7c-1.8-2.5-3.3-2.4-5,0.1c-0.6,0.9-1.4,1.6-2.2,2.3c-0.9,0.7-0.9-0.2-0.9-1.1c0.2-1.4,0.1-2.9,0.6-4.2
			c1.4-1.7,1.5-3-0.1-4.9c-1.4-1.7-3.7-2-4.4-4.9c1.6-1.1,3.3-0.3,5-0.5c0.9-0.1,1.8,0.3,2.4-1.1c0.7-2.6,1.4-5.2,2.1-8
			c0.8,3.2,1.5,6,2.2,8.8C47.8,150.5,50.2,149.2,52.5,150.3z"/>
		<path class="st18" d="M158.5,20.7c-0.6,2.9-2.8,3.2-4,5.2c-0.8,0.9-1,2-1,3.3c0.5,2.5,1,4.9,1.6,7.9c-1.9-1.8-3.6-3.1-5.1-4.9
			c-0.9-1.1-1.3-0.8-2,0c-1.4,1.6-2.8,3.2-4.5,5c0.1-2.9,0.8-5.1,1.4-7.3c0.6-2.1,0.2-3.2-1-4.3c-1.5-1.4-2.9-3.1-4.3-4.7
			c1.5-1.3,3.2-0.3,4.7-0.6c1-0.2,2,0.3,2.8-0.9c0.4-0.4,0.4-1,0.4-1.6c0.2-1.4,0.1-2.9,0.6-4.2c0.7-0.2,0.8-1.3,1.2-2.3
			c0.8,3.2,1.5,6,2.3,8.7C153.8,21,156.2,19.7,158.5,20.7z"/>
		<path class="st17" d="M19.7,20.1c0.4-1.2,0.8-2.3,0.8-3.6c-0.1-1,0.2-1.8,0.6-2.7c0.2-0.7,0.5-1.4,0.8-2.4
			c0.7,2.8,1.4,5.3,2.1,7.9c0.6,1.4,1.6,1,2.4,1.1c1.7,0.2,3.4-0.6,5,0.5c-0.2,2.2-1.7,2.2-2.7,3.2c-3.1,3.2-3.1,3.1-2,8.3
			c0.3,1.4,0.9,2.8,0.6,5.2c-3.7-7.3-7.4-6.6-11.4-0.8c0.5-2.4,0.9-4.9,1.6-7.1c0.6-1.8,0.1-2.7-0.9-3.8c-1.5-1.6-3.3-2.6-4.3-5.1
			C14.9,19.6,17.4,21,19.7,20.1z"/>
		<path class="st17" d="M222.5,150.5c-0.7,2.6-2.7,3.1-4,4.5c-1.6,1.6-1.9,3.1-0.9,5.3c0.7,1.2,0.9,2.7,1,4.3
			c-0.2,0.6,0.8,3.2-1,1.1c-1.5-1.7-3.1-4.3-4.6-4.3c-1.6,0-3.1,2.7-4.7,4.3c-0.3,0.3-0.7,0.7-1.3,1.3c0.6-2.9,1-5.5,1.8-7.8
			c0.6-1.8,0.1-2.7-0.9-3.8c-1.5-1.6-3.3-2.6-4.3-5.1c2.3-1.1,4.8,0.2,7.1-0.7c0.7-2.8,1.4-5.6,2.2-8.8c0.8,2.9,1.4,5.4,2.1,8
			c0.8,1.6,1.9,0.9,2.9,1.1C219.4,150.2,221,149.3,222.5,150.5z"/>
		<path class="st17" d="M232,19.3c0.7-2.5,1.3-5,2.1-7.9c0.4,1,0.6,1.7,0.9,2.4c0.4,0.8,0.7,1.6,0.6,2.7c0,1.3,0.4,2.5,0.8,3.6
			c2.3,0.9,4.8-0.4,7.1,0.7c-0.8,2.4-2.5,3.4-3.9,4.7c-1.4,1.4-1.8,2.7-1.1,4.9c0.6,1.9,0.9,3.9,1.4,6.3c-2-0.9-3.2-2.7-4.6-4.1
			c-1-1.1-1.6-1.1-2.5,0c-1.3,1.5-2.6,2.7-4.2,4.3c-0.1-2.9,0.7-4.9,1.2-6.9c0.6-2.1,0.1-3-1-4.4c-1.4-1.7-3.6-1.8-4.2-4.7
			c1.6-1.1,3.4-0.3,5-0.5C230.4,20.3,231.4,20.7,232,19.3z"/>
		<path class="st17" d="M62.1,20.2c0.7-2.8,1.5-5.7,2.2-8.8c0.8,2.8,1.5,5.4,2.2,8c0.8,1.5,2,0.8,3,1c1.5,0.3,3.1-0.7,4.5,0.6
			c-1.2,2.1-2.9,3.4-4.5,4.9c-1.1,1.1-1.3,2.1-0.9,3.8c0.6,2.3,1.1,4.6,1.8,7.8c-2-2.1-3.5-3.5-5-5.2c-0.8-0.9-1.4-0.9-2.1,0
			c-1.5,1.7-3.1,3.2-4.9,5.1c0.6-2.9,1.1-5.2,1.6-7.5c-0.3-1,0.2-1.9,0.2-2.9c-1.4-2.5-4-3.1-5-6.3C57.4,19.8,59.8,20.8,62.1,20.2z"
		/>
		<path class="st17" d="M196.1,29.9c0.5,2.2,0.9,4.5,1.5,7.4c-1.1-1.1-2-1.9-2.8-2.7c-3.2-3.3-3.2-3.3-6.5,0.1
			c-0.6,0.7-1.2,1.7-2.3,1.6c0-0.5,0-0.9,0.1-1.3c0.4-2.6,2.1-5.4,1.3-7.6c-0.7-2.2-2.9-3.4-4.4-5c-0.4-0.4-0.7-1-1-1.5
			c1.6-1.2,3.3-0.3,5-0.6c0.9-0.1,1.8,0.3,2.5-1c0.7-2.6,1.4-5.2,2.2-8c0.8,3.1,1.5,6,2.2,8.8c2.3,0.6,4.7-0.3,7,0.6
			c-1,3.2-3.6,3.8-5,6.3C195.9,28,196.5,28.9,196.1,29.9z"/>
		<path class="st18" d="M168,202c0.8-1.9,1.2-4,1.5-6.2c-0.1-1,0.2-1.9,0.6-2.8c1.6,0.9,1.1,3.4,1.7,5c0.5,1.3,0.4,3,1.2,4
			c2.2-0.3,4.3-0.4,6.5,0c-0.1,2.4-1.6,2.8-2.6,3.7c-2.2,1.9-2.9,4-1.7,7.4c0.6,1.5,0.8,3.3,1.2,5c-1.8,0.5-2.3-1.8-3.3-3
			c-1.9-2.2-3.4-2.8-5.2-0.1c-0.8,1.2-1.8,2.4-3.3,2.9c0.6-2.5,0.9-4.9,1.6-7c0.8-2.3-0.1-3.4-1.3-4.1c-1.7-1-2.7-2.9-3.9-4.7
			C163.4,201.5,165.7,202,168,202z"/>
		<path class="st18" d="M62.1,72.1c0.7-2.8,1.4-5.6,2.3-8.9c0.8,2.9,1.5,5.5,2.2,8.1c0.9,1.7,2.2,0.8,3.4,1c1.2,0.2,2.4-0.3,3.6,0.3
			c-0.5,2.8-2.4,3.3-3.8,4.8c-1.4,1.5-1.9,2.7-0.8,4.8c0.4,0.8,0.7,1.6,0.6,2.7c-0.2,1.4,0.9,2.6,0.4,4c-1.9-1.8-3.6-5.4-5.6-5.2
			c-1.9,0.2-3.7,3.3-5.9,5.5c0.4-2.2,0.7-4,1.1-5.7c-0.1-1.7,0.9-3.3,0.1-5c-1.2-2.3-3.9-2.4-4.6-5.7C57.4,71.8,59.8,72.8,62.1,72.1
			z"/>
		<path class="st18" d="M196.5,83.4c0.3,1.8,0.6,3.6,1,5.6c-3.7-4.9-7.2-7-11-0.8c-0.1,0.1-0.3-0.1-0.5-0.1
			c-0.4-1.2,0.7-2.1,0.4-3.3c-0.1-1,0.2-1.8,0.6-2.7c1.1-2.1,0.6-3.3-0.8-4.8c-1.3-1.4-3.3-2-3.8-4.8c1.6-0.6,3.2-0.2,4.8-0.3
			c0.8-0.1,1.6,0.1,2.2-1c0.7-2.6,1.4-5.2,2.1-8.1c0.8,3.2,1.6,6,2.3,8.9c2.3,0.8,4.7-0.3,7,0.6c-0.8,3-3.3,3.3-4.6,5.7
			C195.7,80,196.6,81.7,196.5,83.4z"/>
		<path class="st18" d="M31.1,72.6c-0.6,2.8-2.5,3.5-3.9,5c-1.1,1.2-1.3,2.2-0.9,4.1c0.5,2.3,1.5,4.5,1.3,7.2
			c-2-1.9-3.7-5.5-5.7-5.2c-1.9,0.2-3.7,3.3-5.8,5.5c0.5-2.7,1-5,1.5-7.2c-0.2-1.2,0.2-2.5-0.3-3.6c-1.3-2.3-3.5-3-4.6-5.6
			c2.3-0.8,4.7,0,7.1-0.5c0.7-2.9,1.5-5.7,2.3-8.8c1.3,3,1.2,6.6,2.7,9.3C26.7,72.2,28.9,72.1,31.1,72.6z"/>
		<path class="st18" d="M127.1,213.8c-1.6,1.5-3.1,3.1-5,4.9c0.6-2.9,1.1-5.4,1.8-7.8c0.4-1.6,0.1-2.6-0.8-3.6
			c-1.5-1.6-3.3-2.7-4.4-5c2.3-0.8,4.7-0.4,7-0.3c1.2-2.7,1.4-6,2.4-9.4c1.2,3.3,1.3,6.7,2.6,9.4c2.3-0.1,4.7-0.5,7,0.3
			c-1.1,2.2-2.8,3.3-4.2,4.8c-1.1,1.1-1.6,2.1-0.9,4.1c0.7,2.2,1.1,4.7,1.7,7.5c-1.9-1.8-3.4-3.4-5-4.9
			C128.4,213.8,127.7,213.8,127.1,213.8z"/>
		<path class="st18" d="M40.6,202.2c1.6-2.6,1.3-6.3,2.7-9.2c0.8,3.1,1.5,5.9,2.3,8.8c2.3,0.6,4.7-0.3,7.1,0.6
			c-1.1,2.7-3.3,3.4-4.6,5.6c-0.5,1.1-0.1,2.4-0.3,3.6c0.5,2.2,0.9,4.4,1.4,6.7c-0.2,0-0.4,0.1-0.5,0c-3.3-4.6-6.6-6.8-10.2-0.7
			c-0.3,0.4-0.7,0.5-1.1,0.2c2.5-8.3,2.5-8.3-2.5-13.8c-0.4-0.4-1.2-0.5-0.7-1.7C36.2,201.7,38.4,201.8,40.6,202.2z"/>
		<path class="st18" d="M208.1,207.9c-1.3-2.3-3.5-3-4.6-5.6c2.3-0.9,4.7,0.1,7.1-0.6c0.7-2.8,1.5-5.6,2.2-8.7
			c1.5,2.7,1.1,6.6,2.7,9.1c2.2-0.4,4.3-0.4,6.5,0c-0.6,2.8-2.5,3.5-3.9,5c-1.2,1.2-1.3,2.3-0.9,4.1c0.6,2.3,1.4,4.5,1.3,7.2
			c-2-1.9-3.7-5.5-5.7-5.2c-1.9,0.2-3.7,3.3-5.9,5.5c0.6-2.7,1-5,1.5-7.2C208.2,210.3,208.6,209,208.1,207.9z"/>
		<path class="st18" d="M59.1,135.4c1.9-3.4,1.9-4.1-0.3-6.3c-1-1-2.2-1.9-3.2-2.9c-0.2-0.2-0.3-0.8-0.4-1.1
			c0.2-0.1,0.3-0.3,0.5-0.3c5.3,1.6,8.2-1.6,8.4-9.5c0.4,0.4,0.5,0.4,0.5,0.5c0.9,7.2,3.3,11.4,9.4,8.4c-0.1,0.4-0.1,0.7-0.2,1.1
			c-1.4,1.4-2.6,3-4.1,4.2c-1.3,1.1-1.4,2.2-1,4.1c0.6,2.2,1.3,4.3,1.3,7.9c-3.7-7.3-7.3-6.4-10.8-1.1c-0.6,0.8-0.5-0.3-0.6-0.7
			C58.7,138.2,58.6,136.7,59.1,135.4z"/>
		<path class="st18" d="M83,202.1c1.2-2.2,1.3-4.9,2-7.4c0.2-0.7,0.1-1.7,1-1.6c0.3,0.9,0.7,1.7,0.6,2.8c0.3,2.2,0.7,4.3,1.5,6.2
			c2.3-0.1,4.7-0.5,7,0.3c-1,2.2-2.6,3.4-4.1,4.8c-1.3,1.1-1.6,2.2-1,4.3c0.5,2,1.3,4,1.1,6.8c-1.3-1.4-2.6-2.5-3.7-3.8
			c-1.2-1.5-2.1-1.6-3.4-0.1c-1.2,1.6-2.6,2.8-4.4,4.6c2.4-7.1,2.4-12.6-3-15.7c-0.3-0.2-0.4-0.7,0-1
			C78.7,201.7,80.9,201.8,83,202.1z"/>
		<path class="st18" d="M111.5,87.7c-1.8-1.2-3-4.6-4.9-4c-1.7,0.5-3.1,3-4.7,4.6c-0.2,0.2-0.4,0.4-0.6,0.5
			c-0.1-0.2-0.2-0.5-0.1-0.6c2.5-6.4,1.7-11.3-3.2-14.3c-0.2-0.2-0.6-0.6-0.3-1.1c1.5-0.7,3-0.2,4.6-0.3c0.9-0.1,1.8,0.2,2.5-0.9
			c0.7-2.7,1.4-5.3,2.2-8.3c0.6,2.2,1.1,4.1,1.7,6.1c0.6,2.5,1.8,3.5,3.7,3.1c1.3-0.2,2.6-0.4,3.9,0.2c-0.2,2.3-1.8,2.8-2.8,3.7
			c-2.1,1.8-2.7,4-1.7,7.2c0.3,0.8,0.4,1.8,0.5,2.7C112.4,87.1,112.4,87.8,111.5,87.7z"/>
		<path class="st18" d="M238.6,81.9c0.5,2.2,0.9,4.4,1.5,7.3c-1.5-1.6-2.9-2.6-3.9-4.1c-1.5-2.1-2.7-1.8-4.2,0.1
			c-0.9,1.3-2.1,2.2-3.4,3.5c-0.1-2.9,0.7-5,1.3-7.1c0.5-1.9,0.2-2.8-0.9-4.1c-1.4-1.5-3.3-2.2-3.9-5c2.2-0.5,4.3-0.4,6.5,0
			c1.5-2.6,1.3-6.3,2.7-9.3c0.8,3.1,1.5,6,2.3,8.8c2.3,0.6,4.7-0.3,7.1,0.5c-1,2.7-3.3,3.4-4.6,5.6
			C238.4,79.5,238.8,80.7,238.6,81.9z"/>
		<path class="st18" d="M197.6,139.6c-0.1,0.5-0.1,1.6-0.6,0.7c-3.5-5.5-7-5.4-10.5-0.1c-0.1,0.1-0.3,0.1-0.5,0.1
			c-0.2-0.2-0.2-0.3-0.1-0.7c2.6-8,2.5-8-2.3-13.1c-0.4-0.4-0.9-0.5-1-1.7c0.9,0,1.8,0,2.6,0c4.2,0,4.2,0,5.6-5.9
			c0.3-1.1,0.2-2.4,1.1-3.4c0.6,2.5,1.2,4.8,1.7,7.2c0.3,1.7,0.9,2.3,2.1,2.2c1.7-0.1,3.5,0,5.3,0c-0.1,2.7-1.9,2.8-2.9,3.6
			c-2.3,1.9-2.7,4-1.3,7.1C197.3,136.6,197.4,138.1,197.6,139.6z"/>
		<path class="st19" d="M232.1,121.1c1.6-1.3,0.9-4.2,2-5.8c0.1,0.1,0.3,0.2,0.3,0.3c0.6,7.7,3.4,11.1,9.3,8.5
			c-1.9,3.4-5,4.2-5.5,7.1c-0.4,2.8,1.1,6.2,1.7,9.4c-0.2,0-0.3,0-0.3-0.1c-3.5-5.1-7-6.4-10.7-0.4c-0.1,0.2-0.4,0.1-0.7,0.1
			c0.5-3.2,2.5-6.5,1.7-9.2c-0.8-2.5-3.3-4-5.6-6.5c2.7,0,4.7,0,6.7,0C231.9,123.7,231.5,122.2,232.1,121.1z"/>
		<path class="st18" d="M158.5,72.6c-0.8,2.8-2.9,3.5-4.4,5.3c-0.9,1.1-1.3,1.7-0.7,3.5c0.7,2.3,1.1,4.9,1.8,7.8
			c-0.6-0.6-0.9-0.9-1.2-1.1c-1.6-1.6-3-4.1-4.7-4.4c-1.7-0.3-3,2.9-4.7,4.1c-0.9,0-0.9-0.7-0.6-1.6c1.3-7.1,1.3-7-2.9-11.6
			c-0.4-0.5-1.4-0.5-1-1.9c1.3-0.7,2.6-0.4,3.9-0.2c1.9,0.3,3.1-0.6,3.7-3.1c0.5-1.9,1.1-3.8,1.7-6c0.8,2.9,1.5,5.6,2.2,8.3
			c1.3,1.5,2.8,0.6,4.2,0.8C156.6,72.5,157.6,72,158.5,72.6z"/>
		<path class="st18" d="M154.6,140.4c-0.6-0.6-1-1-1.5-1.5c-4.3-4.3-4.3-4.3-8.1,0.5c-0.5,0.6-1,1.6-1.5,1.2c-1-0.8,0.1-1.6,0.3-2.3
			c1.9-7.1,1.9-7-2.3-11.4c-0.5-0.5-1-1.1-2.1-2.2c2.3,0,4.1-0.1,5.9,0c1.2,0.1,1.8-0.5,2.1-2.1c0.5-2.5,1.1-4.9,1.7-7.5
			c0.2,0.3,0.4,0.5,0.4,0.6c0.7,7.6,3.4,11.1,9.1,8.6c-0.4,1.8-1.1,2-1.6,2.5c-3.9,4.1-3.9,4.1-2.5,10.8
			C154.7,138.3,155.1,139,154.6,140.4z"/>
		<path class="st19" d="M107,115.3c0.5,2.1,1.2,4.2,1.5,6.4c0.4,2.7,1.3,3.4,3.1,3.1c1.5-0.2,3,0,5.1,0c-1.8,1.9-3.1,3.5-4.5,4.7
			c-1.3,1.1-1.5,2.4-1,4.3c0.5,1.6,0.8,3.3,1.2,5c0.1,0.5,0.3,1.2-0.2,1.5c-0.3,0.2-0.8,0.1-0.9-0.2c-3.3-7.1-6.4-3.6-9.6,0.1
			c0,0.1-0.2,0-0.4,0c-0.3-1.4,0.2-2.7,0.6-3.9c1.3-3.7,1.1-6.5-1.8-8.4c-0.9-0.6-1.7-1.7-2.5-2.6c0.1-0.3,0.2-0.5,0.2-0.5
			c5.2,1.2,8.8-0.8,8.4-10.2C106.5,114.7,106.7,115,107,115.3z"/>
		<path class="st19" d="M25.1,124.6c2,0,4,0,6,0c0.1,0.2,0.2,0.4,0.2,0.6c-1.4,1.5-2.8,3.1-4.2,4.4c-1.2,1-1.3,2.1-0.9,3.8
			c0.5,2.2,1.3,4.3,1.4,6.7c-0.2,0-0.4,0.1-0.5,0c-1.8-1.5-3.4-5-5.4-4.5c-1.9,0.5-3.5,3.3-5.3,5.1c-0.4-0.8,0-1.4,0.2-2
			c1.7-7.7,1.7-7.7-2.9-12.5c-0.3-0.3-0.6-0.7-1.4-1.6c2.2,0,3.9-0.1,5.6,0c1.4,0.2,2.1-0.6,2.4-2.6c0.4-2.3,1-4.6,1.7-7.4
			c0.7,2.4,1.2,4.4,1.7,6.3C24.3,122.1,24.3,123.7,25.1,124.6z"/>
		<path class="st20" d="M17.1,185.2c1.2-1.1,1.3-2.2,0.1-3.5c-1.5-1.5-3-3.1-4.7-4.8c2.5-1,4.9,0.6,7.1-1l0,0
			c0.8-2.9,1.5-5.9,2.3-8.9c1.1,1.5,0.7,3.9,1.7,5.4c0.5,1,0.9,2.1,0.7,3.5c2.2,1.6,4.5,0.1,7.2,1c-1.3,1.4-2.4,2.7-3.6,3.7
			c-1.7,1.5-2.1,3.2-1.3,5.8c0.5,1.7,1.2,3.5,1,6.1c-1.3-2.2-3.3-2.4-4.4-4.6c-0.6-1.2-1.4-1.1-2.3-0.1c-1.3,1.6-2.8,2.9-4.2,4.3
			c-0.7-1,0.2-1.9-0.1-2.8C16.7,188,16.6,186.5,17.1,185.2z"/>
		<path class="st20" d="M84.1,42.8c0.5-1.7,0.9-3.4,1.6-5.6c0.7,2.9,1.4,5.3,2,7.7c0.3,0.4,0.4,0.9,0.3,1.5c2.2,1.4,4.6,0,7.2,0.9
			c-1.1,1.1-1.8,2.1-2.8,2.8c-2.5,1.9-3.4,4.2-1.9,8.1c0.4,1,1,2.3,0.4,3.8c-2.2-0.3-3.2-4.7-5.7-3.8c-2.1,0.7-3.4,3.4-5.5,4.9
			c0.3-1.8,0.6-3.2,0.9-4.6c0.2-1.4,0.1-2.9,0.6-4.2c0.5-1.9-0.6-2.5-1.4-3.1c-1.3-0.9-2.3-2.2-3.6-4.1c2,0,3.8,0,5.5,0
			c0.7,0,1.8,0.6,1.8-1.4C83.4,44.6,83.6,43.7,84.1,42.8z"/>
		<path class="st20" d="M168.1,44.9c1.7-1.8,1.2-5,2.3-7.2c1.1,1.2,0.7,3.6,1.6,5.1c0.5,0.8,0.7,1.7,0.6,2.8c0,1.7,0.9,1.4,1.6,1.4
			c1.8,0,3.6,0,5.6,0c-1.4,3.2-4.4,3.5-5.2,7.2c0.7,1.2,0.9,2.7,1,4.3c0.3,1.4,0.5,2.9,0.8,4.4c-2.3-1.1-3.5-4.5-5.9-4.8
			c-2.3-0.2-3.2,4.2-5.8,3.9c0.6-3.1,2.4-6.3,1.5-8.9c-0.9-2.4-3.3-3.7-5.2-5.7c2.5-1,4.9,0.6,7-1C167.7,45.9,167.7,45.4,168.1,44.9
			z"/>
		<path class="st20" d="M194,175.9c2.2,1.5,4.5,0.1,7.1,0.9c-1.4,1.5-2.5,3-3.8,4c-1.8,1.4-1.9,3.1-1.2,5.4c0.4,1.4,0.7,2.9,1,4.4
			c0.1,0.6,0.3,1.2-0.2,1.4c-0.3,0.1-0.7,0.1-0.9-0.2c-1.3-2.1-2.9-4.8-4.7-4.4c-1.7,0.3-3.1,2.9-4.7,4.4c-0.3,0.2-0.5,0.4-1.1,0.9
			c0.7-2.8,1.3-5.2,1.8-7.5c0.4-1.8,0-3-1.2-4c-1.4-1-2.5-2.7-3.9-4.2c2.5-1,4.9,0.6,7.1-1c-0.1-0.5-0.2-0.9,0.2-1.2
			c0.7-2.5,1.3-5,2.1-7.9c0.8,3.1,1.5,5.9,2.2,8.7c0.2,0,0.3,0.1,0.2,0.2C194.1,175.8,194.1,175.9,194,175.9z"/>
		<path class="st20" d="M232.5,172.4c0.9-1.5,0.6-3.9,1.7-5.4c0.8,3,1.5,5.9,2.3,8.9l0,0c2.2,1.6,4.6,0,7,1
			c-1.6,1.6-2.9,3.3-4.4,4.6c-1.2,1.1-1.4,2.2-0.6,3.7c0.7,1.2,0.9,2.7,1,4.3c-0.2,0.9,0.6,1.7,0.1,2.8c-2.1-1.3-3.6-5.2-5.7-4.9
			c-1.9,0.3-3.6,3.2-5.4,4.9c0,0-0.2,0-0.4-0.1c0.5-1.9,0.8-3.9,1.4-5.8c0.8-2.6,0.3-4.4-1.4-5.8c-1.2-1-2.2-2.3-3.5-3.7
			c2.5-1,5,0.6,7.1-1C231.7,174.6,232,173.5,232.5,172.4z"/>
		<path class="st21" d="M151.6,175.9c2.2,1.5,4.5,0.1,7.1,0.9c-1.6,1.7-3,3.3-4.5,4.6c-1,0.9-1.3,1.8-0.8,3.4c0.7,2.3,1.1,4.7,1.8,8
			c-1.7-1.8-3-2.9-4.2-4.3c-1.3-1.5-2.4-1.7-3.7-0.1c-1.1,1.4-2.4,2.5-3.8,4c-0.2-2,0.4-3.4,0.8-4.8c1.1-3.5,0.8-6.1-1.8-7.9
			c-0.9-0.6-1.7-1.8-2.8-2.9c2.4-1.1,4.9,0.5,7-1c-0.1-0.3-0.1-0.5,0.1-0.7c0.7-2.7,1.4-5.4,2.2-8.4c0.8,3,1.5,5.8,2.2,8.5
			c0.2,0.1,0.2,0.2,0.2,0.3C151.7,175.8,151.6,175.9,151.6,175.9z"/>
		<path class="st20" d="M215.2,46.3c2.2,1.6,4.6,0.1,7.1,0.9c-1.7,1.9-3.3,3.7-4.8,5.4c-0.2,0.7-0.3,1.4-0.3,2.2
			c0.5,2.5,1,4.9,1.7,8.4c-1.9-2-3.3-3.3-4.6-4.8c-1-1.2-1.8-1.1-2.8,0.1c-1.3,1.5-2.6,2.8-4,4.1c-0.7-1.1,0.2-1.9,0-2.8
			c0.2-1.4,0.1-2.9,0.6-4.2c1.2-1.1,1.3-2.2,0-3.5c-1.5-1.5-3-3.1-4.5-4.6c0.2-0.3,0.2-0.5,0.2-0.5c2.2-0.5,5,1.4,6.6-0.9
			c1.4-2,1.6-5.7,2.3-8.8c1.1,1.6,0.8,3.9,1.7,5.5C215,43.9,215.4,45,215.2,46.3z"/>
		<path class="st20" d="M130.4,46.4c2.2,1.4,4.5,0.1,7.1,0.9c-1.5,1.5-2.7,3-4,4.2c-1.3,1.2-1.7,2.3-1.1,4.6c0.6,2,1.4,4,1.1,6.4
			c-2.2-0.8-3.3-4.7-5.7-4.3c-2.2,0.3-3.4,3.5-5.7,4.7c0.6-2.5,0.9-4.9,1.6-7c0.6-1.9,0.3-3-0.9-4.1c-1.5-1.4-2.9-3.1-4.3-4.7
			c1.5-1.4,3.2-0.5,4.8-0.7c1-0.1,2,0.3,2.6-1.4c0.6-2.4,1.3-4.8,2.1-7.8c0.8,3.1,1.4,5.8,2.1,8.5C130.3,45.8,130.4,46.1,130.4,46.4
			z"/>
		<path class="st20" d="M62.2,175.5c0.7-2.8,1.4-5.5,2.2-8.7c0.8,2.8,1.4,5.4,2.1,7.9c0.4,0.3,0.4,0.7,0.2,1.2
			c2.2,1.5,4.5,0.1,7,0.9c-0.9,1.2-1.7,2.8-2.7,3.3c-3.8,1.8-2.5,5.1-1.6,8.5c0.3,1,0.8,2.1,0.5,3.5c-0.8,0.2-1.2-0.7-1.6-1.2
			c-4.2-4.2-4.2-4.3-8.2,0.4c-0.4,0.5-0.7,1.2-1.2,0.9c-0.7-0.4-0.1-1.2,0-1.8c0.4-2.6,2-5.3,1.2-7.6c-0.7-2.1-2.8-3.2-4.3-4.7
			c-0.2-0.3-0.5-0.6-0.9-1c2.4-1,4.9,0.6,7-1c-0.1-0.2-0.2-0.3-0.1-0.4C62,175.5,62.1,175.5,62.2,175.5z"/>
		<path class="st20" d="M83.1,98.4c1.2-2.7,1.3-6.1,2.5-9.3c1.1,3.2,1.2,6.5,2.4,9.2l0,0c2.2,1.3,4.5,0,7,0.8
			c-1.6,1.6-2.9,3.2-4.4,4.6c-1,0.9-1.3,1.8-0.8,3.5c0.7,2.2,1.1,4.6,1.7,7.4c-2.3-1.2-3.5-4.4-5.6-4.8c-2.3-0.4-3.4,3.4-5.7,4.2
			c-0.3-2.1,0.5-3.9,0.9-5.6c0.7-2.4,0.2-4-1.2-5.3c-1.2-1.1-2.4-2.4-3.7-3.9C78.6,98.3,81,99.6,83.1,98.4L83.1,98.4z"/>
		<path class="st20" d="M168,98.3c1.2-2.7,1.4-5.9,2.4-9.3c0.9,3.3,1.7,6.3,2.6,9.4l0,0c2.2,1.1,4.4,0,7,0.7
			c-1.6,1.6-2.9,3.1-4.3,4.3c-1.2,1.1-1.5,2.2-1,4.1c0.6,2.2,1,4.4,1.3,7.2c-3.8-5.6-7.4-6.7-11.3,0.9c0-3.8,0.8-6.1,1.4-8.4
			c0.4-1.7,0.2-2.6-0.8-3.5c-1.4-1.3-2.8-2.9-4.4-4.5C163.4,98.1,165.8,99.8,168,98.3L168,98.3z"/>
		<path class="st20" d="M48.6,59.9c0.1,0.9,0.2,1.8,0.4,3.2c-1.7-1.8-3.1-3.1-4.5-4.7c-0.9-1.1-1.6-1.1-2.6,0c-1.4,1.6-2.9,3-4.8,5
			c0.7-3.4,1.3-6,1.8-8.6c0-0.7-0.2-1.5-0.3-2.2c-1.5-1.7-3.1-3.4-4.8-5.3c2.3-1.2,4.8,0.6,7-1.1c-0.2-1.3,0.1-2.4,0.7-3.4
			c0.5-1.8,1-3.6,1.6-5.7c1.1,7.5,3.1,12.6,9.6,9.2c-0.1,0.4-0.2,0.7-0.3,1.1c-1.4,1.5-2.8,3.1-4.3,4.4c-1.2,1.1-1.4,2.1-0.6,3.7
			C48.3,56.8,48.5,58.4,48.6,59.9z"/>
		<path class="st20" d="M104.6,175.3c0.7-2.7,1.4-5.4,2.2-8.5c0.8,3,1.5,5.7,2.2,8.4c0.1,0.1,0.2,0.2,0.2,0.4c0,0.2,0,0.3-0.1,0.3
			c2.2,1.5,4.5,0.1,7.1,1c-1.7,1.8-3.1,3.5-4.7,4.8c-1.1,0.9-1,1.5-0.6,3c0.7,2.4,1.1,4.9,1.9,8.1c-1.7-1.7-2.9-2.7-4-4.1
			c-1.5-2-2.7-1.7-4.1,0.1c-1.1,1.3-2.3,2.4-3.9,4.1c0.7-3.2,1.1-5.6,1.8-8c0.5-1.6,0.2-2.5-0.8-3.4c-1.5-1.3-2.8-2.9-4.4-4.6
			c2.5-1.1,4.9,0.6,7-1C104.3,175.6,104.4,175.4,104.6,175.3z"/>
		<path class="st20" d="M210.7,97.7c0.7-2.8,1.4-5.5,2.2-8.7c0.8,2.9,1.4,5.4,2.1,8c0.4,0.4,0.4,0.9,0.3,1.4c2.2,1.1,4.4,0,7.1,0.7
			c-1.5,1.6-2.7,3-4.1,4.1c-1.3,1.2-1.8,2.4-1.1,4.6c0.7,2.1,1,4.4,1.6,7.3c-1.9-1.9-3.4-3.3-4.7-4.9c-0.9-1.1-1.6-1-2.5,0
			c-1.3,1.6-2.8,2.9-4.7,4.8c0.7-3.1,1.1-5.6,1.7-7.9c0.5-1.7,0.2-2.5-0.8-3.5c-1.4-1.3-2.8-2.9-4.4-4.5c2.4-1.1,4.8,0.5,6.9-0.9
			C210.3,97.9,210.3,97.7,210.7,97.7z"/>
		<path class="st20" d="M41.1,97c0.7-2.6,1.3-5.1,2.1-8c0.8,3.1,1.5,5.9,2.2,8.7c0.3,0,0.4,0.2,0.2,0.6c2.2,1.3,4.5,0,7,0.8
			c-1.6,1.6-3,3.2-4.4,4.6c-1,0.9-1.3,1.8-0.8,3.5c0.6,2.1,1,4.4,1.6,7.1c-2-0.7-3.2-2.5-4.4-4c-1-1.1-1.8-1.2-2.8,0
			c-1.3,1.6-2.8,2.9-4.3,4.5c0-2.6,0.7-4.6,1.2-6.6c0.7-2.5,0.2-3.9-1.2-5.3c-1.2-1.2-2.4-2.4-3.7-3.9c2.5-0.9,4.8,0.4,7-0.8
			C40.7,97.8,40.7,97.3,41.1,97z"/>
		<path class="st20" d="M129.1,92.6c0.4,2,0.5,4,1.4,5.7l0,0c2.2,1.4,4.5-0.1,6.7,0.8c-0.1,0.2-0.1,0.5-0.2,0.6
			c-5.2,5.3-5.2,5.3-2.9,15.5c-1.6-1.6-2.8-2.8-3.9-4.1c-1.4-1.8-2.7-1.7-4.2,0c-1.1,1.4-2.4,2.5-3.7,3.9c0-0.6,0-0.9,0.1-1.2
			c2-8.8,2-8.8-3.7-14.5c2.4-1.2,4.8,0.4,6.9-1l0,0c0.9-1.7,1.1-3.8,1.4-5.7c0-1.2-0.1-2.6,0.8-3.5c0.2,0,0.4,0,0.6,0
			C129.1,90.1,129,91.4,129.1,92.6z"/>
		<path class="st12" d="M492.4,110.4c-1,0.8-2.1,0.3-3.2,0.3c-77.7,0-155.5,0-233.2,0c0-0.3,0-0.7,0-1c0.2-0.3,0.5-0.6,0.8-0.8
			c1.1-0.4,2.3-0.3,3.5-0.3c75.9,0,151.9,0,227.8,0c1.3,0,2.7-0.3,3.9,0.6C492.5,109.5,492.6,109.9,492.4,110.4z"/>
		<path class="st20" d="M153.6,236.4c0.5,2.5,1,4.9,1.6,8.2c-1.5-1.6-2.8-2.6-3.8-3.9c-1.6-2.2-2.8-1.9-4.4,0.1
			c-1.1,1.4-2.4,2.5-3.8,4c0.7-3.2,1.2-5.8,1.8-8.3c-0.2-0.7,0.1-1.4,0-2.1c-1.1-1.8-2.8-2.6-4.2-4c-0.3-0.3-0.8-0.5-0.8-1.2
			c0.1-1.1,0.7-0.7,1.1-0.8c1.9-0.4,3.9,0.7,5.8-0.5c-0.1-0.5-0.2-0.9,0.3-1.2c0.7-2.6,1.3-5.1,2.1-8.1c0.7,2.4,1.2,4.4,1.8,6.5
			c0.5,0.8,0.7,1.7,0.7,2.8c2.2,1.3,4.5,0,6.9,0.8c-1.8,1.9-3.4,3.8-5,5.6C153.4,235,153.8,235.7,153.6,236.4z"/>
		<path class="st20" d="M26.6,237.9c0.4,2.1,0.8,4.2,1.3,6.8c-1.7-1.7-3.1-3-4.3-4.5c-1.2-1.5-2.1-1.5-3.4,0.1
			c-1.1,1.5-2.5,2.7-4.3,4.5c0.7-3.2,1.1-5.6,1.7-7.9c0.5-1.7,0.2-2.5-0.8-3.5c-1.4-1.3-2.8-2.9-4.4-4.5c2.4-1.1,4.8,0.5,6.9-0.9
			c-0.2-0.4-0.1-0.6,0.2-0.6c0.7-2.8,1.4-5.6,2.2-8.7c0.8,2.8,1.4,5.4,2.1,7.9c0.3,0.4,0.4,0.9,0.4,1.5c2.2,1.1,4.4,0,6.9,0.7
			c-1.7,1.9-3.3,3.7-4.8,5.4C25.8,235.4,26.8,236.6,26.6,237.9z"/>
		<path class="st20" d="M189.6,226.6c0.7-2.6,1.4-5.1,2.1-8c0.8,3.1,1.5,5.9,2.2,8.7c0.2,0,0.3,0.1,0.2,0.3c0,0.2,0,0.3-0.1,0.3
			c2.2,1.3,4.5-0.1,7,0.9c-1.2,1.2-2.1,2.5-3.3,3.3c-2.2,1.7-2.6,3.9-1.4,7c0.6,1.5,0.7,3.3,1.3,5.6c-1.9-1.9-3.4-3.3-4.8-4.9
			c-0.9-1.1-1.6-1-2.5,0c-1.4,1.6-2.9,3-4.7,4.9c0.6-2.7,0.9-4.8,1.5-6.7c0.8-2.6,0.2-4.2-1.3-5.6c-1.1-1.1-2.2-2.3-3.5-3.6
			c2.5-1,4.9,0.5,7-0.9C189.2,227.4,189.2,226.9,189.6,226.6z"/>
		<path class="st20" d="M66.7,227.9c2.2,1.4,4.5-0.1,7,0.9c-0.8,0.8-1.3,1.4-1.9,2c-4.5,4.7-3.8,3-2.3,9.8c0.2,1.1,0.5,2.2,0.7,3.3
			c-0.3,0.1-0.5,0.2-0.5,0.1c-1.8-1.8-3.5-5.3-5.5-5c-1.9,0.3-3.7,3.3-5.9,5.6c0.7-2.9,1.1-5.3,1.7-7.6c0.4-1.6,0.6-2.5-0.9-3.7
			c-1.4-1.1-2.6-3-4.1-4.7c2.3-1.2,4.8,0.5,6.9-0.9c-0.1-0.3-0.1-0.5,0.2-0.5c0.7-2.8,1.4-5.6,2.2-8.7c0.8,2.8,1.4,5.4,2.1,7.9
			C66.8,226.9,66.8,227.4,66.7,227.9z"/>
		<path class="st20" d="M229.6,234c-1.5-1.7-3.1-3.4-4.8-5.3c2.4-0.9,4.7,0.4,6.9-0.8c0-0.6,0-1.1,0.4-1.5c0.7-2.6,1.4-5.1,2.1-8
			c0.8,3.2,1.5,5.9,2.2,8.7c0.3,0,0.4,0.2,0.2,0.6c2.2,1.2,4.5,0.1,7,0.8c-1.2,1.2-2.1,2.5-3.1,3.2c-2.5,1.7-2.7,4.1-1.6,7.3
			c0.5,1.3,0.6,2.8,1,4.6c-1.5-0.2-2.3-1.5-3-2.5c-2-2.9-3.7-2.6-5.6,0.1c-0.8,1.1-1.8,1.9-3.1,3.3c0.5-2.7,0.9-4.8,1.3-6.9
			C229.3,236.6,230.2,235.4,229.6,234z"/>
		<path class="st20" d="M109.2,227.9c1.9,1.2,3.9,0.2,5.8,0.5c0.4,0.1,0.9-0.2,1,0.6c0.1,0.8-0.4,0.8-0.7,1.1
			c-1.4,1.4-2.8,2.8-4.2,4.2c-0.2,0.7,0.2,1.4,0,2.1c0.5,2.5,1,4.9,1.6,8.3c-1.9-2-3.5-3.4-4.9-5.1c-0.8-0.9-1.4-0.9-2.1,0
			c-1.5,1.7-3.1,3.3-5.3,5.5c1-3.5,1.7-6,2-8.7c-0.2-0.7,0.1-1.4,0-2.1c-1.6-1.8-3.2-3.6-5-5.5c2.3-1.1,4.7,0.5,6.9-0.9
			c-0.1-1.1,0.2-2,0.6-2.8c0.5-2,1.1-4.1,1.7-6.5c0.8,2.9,1.4,5.5,2.1,8.1C109.4,227,109.3,227.4,109.2,227.9z"/>
		<path class="st22" d="M393.9,184.3c-1,0.1-2,0.2-3,0.2c-45,0-89.9,0-134.9,0c0-0.3,0-0.5,0-0.8c0.2-0.3,0.5-0.6,0.8-0.8
			c1.1-0.7,2.3-0.6,3.4-0.6c43.1,0,86.2,0,129.2,0C391.1,182.4,392.9,181.5,393.9,184.3z"/>
		<path class="st23" d="M256.1,222.2c28.1,0,56.1,0,84.2,0c0.6,0,1.9-0.9,1.7,1.4c-2.5,0.8-5.1,0.7-7.7,0.7c-24.4,0-48.8,0-73.2,0
			c-1.4,0-2.8,0.2-4.2-0.6c-0.3-0.2-0.6-0.5-0.8-0.8C256,222.7,256,222.5,256.1,222.2z"/>
		<path class="st24" d="M256.5,109.7c-0.1,0-0.3,0-0.4,0c0-11.9,0-23.8,0-35.7c0.2,0,0.3,0,0.4,0.2c0.2,0.3,0.4,0.7,0.6,1.1
			c0.4,1.3,0.4,2.8,0.4,4.2c0,8.3,0,16.6,0,24.9c0,1.4,0,2.9-0.4,4.2C256.9,109,256.7,109.3,256.5,109.7z"/>
		<path class="st25" d="M255.9,111.1c0,11.9,0,23.7,0,35.6C255.2,134.8,255.2,123,255.9,111.1z"/>
		<path class="st25" d="M255.9,185.2c0,11.9,0,23.7,0,35.6C255.2,208.9,255.2,197,255.9,185.2z"/>
		<path class="st25" d="M255.9,37.8c0,11.9,0,23.7,0,35.6c-0.4-0.7-0.4-1.5-0.4-2.3c0-10.3,0-20.6,0-30.9
			C255.5,39.3,255.5,38.5,255.9,37.8z"/>
		<path class="st24" d="M256.5,183.7c-0.1,0-0.3,0-0.4,0c0-11.6,0-23.3,0-34.9c0.1,0,0.3,0,0.4,0c0.2,0.3,0.4,0.7,0.6,1.2
			c0.5,1.8,0.4,3.7,0.4,5.6c0,7.6,0,15.2,0,22.7C257.5,180.3,257.5,182.2,256.5,183.7z"/>
		<path class="st24" d="M256.5,35.7l-0.2,0c0,0-0.2,0-0.2,0c0-11.6,0-23.2,0-34.8c0.7,1.1,0.4,2.5,0.4,3.7
			C256.5,14.9,256.5,25.3,256.5,35.7z"/>
		<path class="st24" d="M256.1,222.9c0.1,0,0.3,0,0.4,0c0.8,1.1,0.9,2.5,0.9,3.9c0,8.9,0.1,17.8,0,26.7c0,1.1-0.1,2.1-0.5,3.1
			c-0.2,0.4-0.5,0.6-0.8,0.5l-0.2,0.1C256,245.7,256,234.3,256.1,222.9z"/>
		<path class="st26" d="M126,44.9c0.2,1.9-0.6,2.1-1.7,2.1c-1.9-0.1-3.8,0-5.7,0c-0.5-2.3,0.9-1.3,1.4-1.4
			C121.9,45.3,124,46.3,126,44.9z"/>
		<path class="st27" d="M41.6,42.9c-0.2,1.1-0.5,2.3-0.7,3.4c-2.2,0-4.5,0-6.7,0c0-0.2,0-0.5,0-0.7c1,0,2-0.1,3,0
			c1.8,0.2,3.6,0.2,3.8-3.3c0-0.1,0.1-0.1,0.1-0.2C41.4,42.4,41.5,42.6,41.6,42.9z"/>
		<path class="st28" d="M24.2,175.9c-0.2-1.2-0.5-2.3-0.7-3.5c0-0.1,0-0.2,0.1-0.3c0-0.1,0.1-0.2,0.1-0.3c1.3,5.4,4.7,2.8,7.2,4.1
			C28.6,175.9,26.4,175.9,24.2,175.9z"/>
		<path class="st28" d="M232.5,172.4c-0.2,1.2-0.5,2.3-0.7,3.5c-2.2,0-4.4,0-6.7,0c0-0.2,0-0.5,0-0.7c1,0,2-0.1,3,0
			c1.8,0.2,3.6,0.3,3.8-3.3c0-0.1,0.1-0.2,0.1-0.2C232.3,171.9,232.4,172.2,232.5,172.4z"/>
		<path class="st29"
			  d="M25.1,124.6c-1.5-0.3-1.3-2-1.5-3.5c2.1,3.7,5.2,1.4,8,2.4C29.3,124.6,27.1,123.1,25.1,124.6z"/>
		<path class="st27" d="M215.2,46.3c-0.2-1.1-0.5-2.3-0.7-3.4c0.1-0.3,0.2-0.5,0.4-0.8c0.5,4.5,2.9,3.4,5,3.5c0.7,0,1.3,0,2,0.7
			C219.6,46.3,217.4,46.3,215.2,46.3z"/>
		<path class="st30" d="M151.7,227.9c-0.4-0.8-0.7-1.7-0.7-2.8c0-0.1,0-0.2,0.1-0.3c0-0.1,0.1-0.2,0.1-0.3c1.1,3.6,3.3,2.7,5.3,2.7
			c0.6,0,1.3,0,1.9,0.7C156.1,227.9,153.9,227.9,151.7,227.9z"/>
		<path class="st30" d="M105.1,225.1c0,1.1-0.2,1.9-0.6,2.8c-2.2,0-4.4,0-6.6,0c0-0.2,0-0.5,0-0.7c1,0,2.1,0,3.1,0
			c1.6,0.1,3.4,0.4,3.8-2.8c0,0,0.2,0,0.2,0.1C105,224.7,105,224.9,105.1,225.1z"/>
		<path class="st31" d="M116,72.6c-1.6,0-3.1-0.1-4.7,0.2c-2,0.4-2.9-0.8-2.9-3.6C110.3,73.7,113.7,70.9,116,72.6z"/>
		<path class="st31" d="M147.6,69.3c0,2.8-0.9,3.9-2.9,3.6c-1.5-0.3-3.1-0.1-4.7-0.2c0.4-0.7,1-0.7,1.6-0.7
			C143.8,71.9,146.2,72.8,147.6,69.3z"/>
		<path class="st29" d="M232.1,121.1c-0.2,1.2,0.8,3.2-1.1,3.4c-2-1.4-4.2,0-6.3-1.3c1.4,0,2.9-0.1,4.3,0
			C230.4,123.4,231.4,122.8,232.1,121.1z"/>
		<path class="st32"
			  d="M87.9,46.4c-0.5-0.3-0.3-1-0.3-1.5c2.4,1.3,4.9,0.3,7.3,1.5C92.6,46.4,90.2,46.4,87.9,46.4z"/>
		<path class="st33"
			  d="M215.3,98.4c-0.4-0.4-0.3-0.9-0.3-1.4c2.2,1,4.6,0.5,6.9,1.4C219.7,98.4,217.5,98.4,215.3,98.4z"/>
		<path class="st34" d="M31.5,20.9c-1.9,0-3.9,0-5.8,0c-0.8,0-1.7,0.2-1.6-1.6C26.4,21,29.2,18.8,31.5,20.9z"/>
		<path class="st34" d="M232,19.3c0.1,1.8-0.8,1.6-1.6,1.6c-1.9,0-3.9,0-5.8,0c1.3-1.7,2.8-0.6,4.3-0.9c1.1-0.2,2.3,0.4,3-1.4
			c0,0.1,0.1,0.2,0.1,0.3C232,19.1,232,19.2,232,19.3z"/>
		<path class="st33" d="M41.1,97c0,0.5,0,1.1-0.3,1.4c-2.1,0-4.3,0-6.4,0C36.6,97.4,38.9,98,41.1,97z"/>
		<path class="st35"
			  d="M222.5,150.5c-1.9,0-3.9,0-5.8,0c-0.8,0-1.7,0.3-1.6-1.6C217.4,150.6,220.1,148.4,222.5,150.5z"/>
		<path class="st35" d="M41.1,148.9c0.1,1.9-0.8,1.6-1.6,1.6c-1.9,0-3.9,0-5.8,0c1.4-1.7,3-0.5,4.5-0.9c0.9-0.2,2.1,0.6,2.5-1.3
			c0,0,0.2-0.1,0.2,0C41,148.4,41,148.7,41.1,148.9z"/>
		<path class="st33" d="M24.4,228c-0.4-0.3-0.4-0.9-0.4-1.5c2.2,1.1,4.6,0.5,6.9,1.5C28.7,228,26.6,228,24.4,228z"/>
		<path class="st33" d="M232,226.5c0,0.5,0.1,1.1-0.4,1.5c-2.1,0-4.3,0-6.4,0c0-0.3,0-0.5,0-0.8c1,0,2.1,0,3.1,0
			c1.2,0,2.6,0.4,3.5-1.3c0,0.1,0.1,0.2,0.1,0.3C232,226.3,232,226.4,232,226.5z"/>
		<path class="st36"
			  d="M66.7,227.9c-0.1-0.4-0.2-0.8-0.2-1.3c2.3,1,4.6,0.3,6.9,1.3C71.2,227.9,69,227.9,66.7,227.9z"/>
		<path class="st37"
			  d="M109.2,227.9c-0.1-0.4-0.2-0.8-0.3-1.2c2.3,0.7,4.6,0.3,6.9,1.2C113.6,227.9,111.4,227.9,109.2,227.9z"/>
		<path class="st38"
			  d="M74,20.9c-1.9,0-3.8,0-5.7,0c-0.8,0-1.8,0.4-1.7-1.6c1.6,0.9,3.3,0.6,5,0.7C72.4,20.1,73.4,19.5,74,20.9z"/>
		<path class="st39"
			  d="M116.5,21c-2,0-4,0-5.9,0c-0.7,0-1.6,0.2-1.6-1.4c1.7,0.7,3.3,0.4,5,0.5C114.8,20.1,115.9,19.5,116.5,21z"/>
		<path class="st39" d="M147.1,19.5c0,1.6-0.8,1.4-1.6,1.4c-2,0-4,0-5.9,0c0.6-1.5,1.6-0.9,2.5-0.9
			C143.8,19.9,145.5,20.2,147.1,19.5z"/>
		<path class="st38" d="M189.5,19.4c0.1,1.9-1,1.5-1.7,1.6c-1.9,0-3.8,0-5.7,0c0.6-1.4,1.6-0.9,2.5-0.9
			C186.2,19.9,187.9,20.2,189.5,19.4z"/>
		<path class="st40" d="M73.5,72.6c-1.8,0-3.7,0.1-5.5,0.1c-0.7,0-1.6,0.2-1.5-1.5C68.8,72.8,71.3,71.1,73.5,72.6z"/>
		<path class="st41"
			  d="M66.7,175.9c-0.1-0.4-0.1-0.8-0.2-1.2c2.3,0.8,4.6,0.3,6.9,1.2C71.2,175.9,68.9,175.9,66.7,175.9z"/>
		<path class="st42" d="M109.1,175.9c0-0.2-0.1-0.4-0.1-0.7c2.3,0,4.6,0,6.9,0c0,0.2,0,0.4,0,0.7
			C113.6,175.9,111.4,175.9,109.1,175.9z"/>
		<path class="st42" d="M147.1,175.2c0,0.2-0.1,0.4-0.1,0.7c-2.2,0-4.4,0-6.6,0c0-0.2,0-0.4,0-0.7
			C142.5,175.2,144.8,175.2,147.1,175.2z"/>
		<path class="st41"
			  d="M189.6,174.7c-0.1,0.4-0.1,0.8-0.2,1.2c-2.2,0-4.4,0-6.6,0C185,175,187.4,175.6,189.6,174.7z"/>
		<path class="st37"
			  d="M147.1,226.7c-0.1,0.4-0.2,0.8-0.3,1.2c-2.2,0-4.4,0-6.6,0C142.5,227.1,144.9,227.4,147.1,226.7z"/>
		<path class="st40" d="M189.5,71.3c0.1,1.7-0.8,1.5-1.5,1.5c-1.8,0-3.7-0.1-5.5-0.1c1-1.2,2.2-0.5,3.3-0.6c1.2-0.1,2.6,0.4,3.5-1.3
			c0,0.1,0.1,0.2,0.1,0.3C189.5,71.1,189.5,71.2,189.5,71.3z"/>
		<path class="st36"
			  d="M189.6,226.6c-0.1,0.4-0.2,0.8-0.2,1.3c-2.2,0-4.5,0-6.7,0C184.9,226.9,187.3,227.6,189.6,226.6z"/>
		<path class="st41"
			  d="M19.6,175.9c-2.3,0-4.6,0-6.9,0C15,175.7,17.3,174.2,19.6,175.9C19.6,175.9,19.6,175.9,19.6,175.9z"/>
		<path class="st41" d="M62.2,175.5c0.1,0.2,0,0.4-0.1,0.4c-2.3,0-4.6,0-6.9,0C57.5,175.4,59.8,174.8,62.2,175.5z"/>
		<path class="st41" d="M104.6,175.3c0.1,0.2,0,0.4-0.1,0.6c-2.3,0-4.5,0-6.8,0c0-0.2,0-0.4,0-0.6
			C100,175.3,102.3,175.3,104.6,175.3z"/>
		<path class="st43" d="M62.1,20.2c-2.3,1.7-4.7,0.5-7,0.6C57.4,19.2,59.8,20.2,62.1,20.2z"/>
		<path class="st39" d="M104.6,20c-2.2,2-4.6,0.5-7,0.7C99.8,19.2,102.2,20.3,104.6,20z"/>
		<path class="st39" d="M158.5,20.7c-2.3-0.2-4.7,1.3-7-0.7C153.8,20.3,156.2,19.2,158.5,20.7z"/>
		<path class="st43" d="M201,20.8c-2.3-0.1-4.7,1.1-7-0.6C196.3,20.2,198.7,19.2,201,20.8z"/>
		<path class="st41"
			  d="M194,175.9c-0.1-0.1-0.2-0.2-0.1-0.4c2.3-0.9,4.7,0.2,7,0.4C198.6,175.9,196.3,175.9,194,175.9z"/>
		<path class="st41" d="M236.5,175.9c2.2-1.7,4.6-0.2,6.9,0C241.1,175.9,238.8,175.9,236.5,175.9
			C236.5,175.9,236.5,175.9,236.5,175.9z"/>
		<path class="st44" d="M201,72.7c-2.3-0.2-4.7,0.9-7-0.6C196.3,71.9,198.7,71.4,201,72.7z"/>
		<path class="st44"
			  d="M158.5,72.6c-1.9,0-3.8,0.1-5.7,0.1c-0.7,0-1.4,0.2-1.4-1.3C153.7,72.7,156.3,71.1,158.5,72.6z"/>
		<path class="st44"
			  d="M104.6,71.5c0,1.5-0.7,1.3-1.4,1.3c-1.9,0-3.8-0.1-5.7-0.1C99.8,71.1,102.3,72.7,104.6,71.5z"/>
		<path class="st44" d="M62.1,72.1c-2.3,1.5-4.7,0.4-7,0.6C57.4,71.4,59.7,71.9,62.1,72.1z"/>
		<path class="st41" d="M151.6,175.9c-0.1-0.2-0.2-0.4-0.1-0.6c2.3,0,4.6,0,6.9,0c0,0.2,0,0.4,0,0.6
			C156.1,175.9,153.9,175.9,151.6,175.9z"/>
		<path class="st32" d="M168.1,44.9c0,0.5,0,0.9-0.1,1.4c-2.3,0-4.6,0-6.8,0C163.4,45.1,165.9,46.4,168.1,44.9z"/>
		<path class="st26" d="M130.4,46.4c-0.1-0.3-0.2-0.5-0.3-0.8c2.4,0,4.8,0,7.2,0c0,0.3,0,0.5,0,0.8C135,46.4,132.7,46.4,130.4,46.4z
			"/>
		<path class="st37"
			  d="M62.1,227.4c0,0.2,0,0.4-0.2,0.5c-2.2,0-4.5,0-6.7,0c0-0.2,0-0.4,0-0.5C57.6,227.4,59.8,227.4,62.1,227.4z"
		/>
		<path class="st37" d="M194.1,227.9c-0.2-0.1-0.2-0.3-0.2-0.5c2.3,0,4.6,0,6.9,0c0,0.2,0,0.4,0,0.5
			C198.6,227.9,196.3,227.9,194.1,227.9z"/>
		<path class="st45" d="M19.8,227.3c-0.1,0.2-0.2,0.4-0.2,0.6c-2.3,0-4.5,0-6.8,0c0-0.2,0-0.4,0-0.6C15,227.3,17.4,227.3,19.8,227.3
			z"/>
		<path class="st46"
			  d="M45.6,98.3c-0.1-0.2-0.2-0.4-0.2-0.6c2.4,0,4.7,0,7.1,0c0,0.2,0,0.4,0,0.6C50.2,98.3,47.9,98.3,45.6,98.3z"
		/>
		<path class="st45" d="M236.6,227.9c-0.1-0.2-0.2-0.4-0.2-0.6c2.4,0,4.7,0,7.1,0c0,0.2,0,0.4,0,0.6
			C241.1,227.9,238.8,227.9,236.6,227.9z"/>
		<path class="st46"
			  d="M88.1,98.3c2.2-1.5,4.6-0.3,6.8,0C92.6,98.3,90.3,98.3,88.1,98.3C88.1,98.3,88.1,98.3,88.1,98.3z"/>
		<path class="st44" d="M19.6,72.1c-2.3,1.3-4.7,0.4-7.1,0.5C14.9,71.4,17.3,72,19.6,72.1z"/>
		<path class="st44" d="M210.6,201.7c-2.3,1.4-4.7,0.4-7.1,0.6C205.8,201,208.2,201.6,210.6,201.7z"/>
		<path class="st44" d="M243.5,72.7c-2.4-0.2-4.7,0.8-7.1-0.5C238.8,72,241.2,71.4,243.5,72.7z"/>
		<path class="st47" d="M137.5,202.3c-2.3-0.1-4.7,0.3-7-0.3C132.9,201.1,135.2,201.1,137.5,202.3z"/>
		<path class="st44" d="M52.6,202.3c-2.3-0.2-4.7,0.8-7-0.6C47.9,201.6,50.3,201,52.6,202.3z"/>
		<path class="st46" d="M168,98.3c-2.3,0-4.6,0-6.8,0C163.5,97.9,165.8,96.9,168,98.3C168,98.3,168,98.3,168,98.3z"/>
		<path class="st47" d="M95,202.3c-2.3-0.1-4.7,0.4-7-0.3C90.4,201.2,92.7,201.1,95,202.3z"/>
		<path class="st47" d="M168,202c-2.3,0.7-4.7,0.2-7,0.3C163.3,201.1,165.7,201.2,168,202z"/>
		<path class="st46" d="M210.7,97.7c-0.1,0.2-0.2,0.4-0.2,0.6c-2.3,0-4.6,0-6.8,0c0-0.2,0-0.4,0-0.6C206,97.7,208.3,97.7,210.7,97.7
			z"/>
		<path class="st47" d="M125.5,202.1c-2.3,0.6-4.7,0.1-7,0.3C120.9,201.1,123.2,201.1,125.5,202.1z"/>
		<path class="st48" d="M52.5,150.3c-2.4-0.2-4.8,1.1-7.1-0.7C47.8,149.9,50.3,148.7,52.5,150.3z"/>
		<path class="st49" d="M19.7,20.1c-2.3,1.9-4.7,0.5-7.1,0.7C14.9,19.1,17.3,20.3,19.7,20.1z"/>
		<path class="st49" d="M243.5,20.8c-2.4-0.2-4.8,1.2-7.1-0.7C238.7,20.3,241.2,19.1,243.5,20.8z"/>
		<path class="st50" d="M83.1,45.6c-2.1,1.5-4.2,0.4-6.4,0C78.8,45.6,80.9,45.6,83.1,45.6L83.1,45.6z"/>
		<path class="st50" d="M173,45.6c2.1,0,4.2,0,6.4,0C177.3,46,175.1,47.1,173,45.6L173,45.6z"/>
		<path class="st48" d="M180,150.4c-2.3-0.1-4.6-0.1-7-0.2C175.4,149.3,177.7,149,180,150.4z"/>
		<path class="st46" d="M125.6,98.3c-2.1,0-4.3,0-6.4,0C121.3,98,123.5,96.8,125.6,98.3L125.6,98.3z"/>
		<path class="st48" d="M168,150.1c-2.3,0.7-4.6,0.3-7,0.2C163.3,149,165.7,149.4,168,150.1z"/>
		<path class="st46"
			  d="M130.5,98.4c2.1-1.6,4.2-0.4,6.4,0C134.8,98.3,132.6,98.3,130.5,98.4C130.5,98.3,130.5,98.4,130.5,98.4z"/>
		<path class="st46"
			  d="M173,98.4c2.1-1.6,4.3-0.4,6.4,0C177.2,98.4,175.1,98.4,173,98.4C172.9,98.4,173,98.4,173,98.4z"/>
		<path class="st48" d="M137.5,150.4c-2.3,0-4.6,0.4-7-0.2C132.9,149.3,135.2,149,137.5,150.4z"/>
		<path class="st46" d="M83.1,98.4c-2.1,0-4.3,0-6.4,0C78.8,98,81,96.8,83.1,98.4C83.1,98.4,83.1,98.4,83.1,98.4z"/>
		<path class="st48" d="M210.6,149.6c-2.3,1.8-4.7,0.5-7.1,0.7C205.8,148.7,208.3,149.9,210.6,149.6z"/>
		<path class="st48" d="M125.5,150.2c-2.3,0.6-4.6,0.2-7,0.2C120.9,149,123.2,149.3,125.5,150.2z"/>
		<path class="st48" d="M95,150.4c-2.3,0-4.7,0.5-7-0.2C90.4,149.4,92.7,149,95,150.4z"/>
		<path class="st48" d="M83,150.2c-2.3,0.1-4.6,0.1-7,0.2C78.4,149,80.7,149.3,83,150.2z"/>
		<path class="st44" d="M179.5,202.2c-2.2,0.2-4.3,0.3-6.5,0C175.2,201.2,177.4,201.1,179.5,202.2z"/>
		<path class="st44" d="M231.5,72.6c-2.2,0-4.3,0-6.5,0C227.2,71.6,229.3,71.6,231.5,72.6z"/>
		<path class="st44" d="M83,202.1c-2.2,0.4-4.3,0.3-6.5,0C78.7,201.1,80.9,201.2,83,202.1z"/>
		<ellipse class="st32" cx="49.8" cy="46" rx="3.7" ry="0.2"/>
		<ellipse class="st32" cx="206.3" cy="46" rx="3.7" ry="0.2"/>
		<path class="st44" d="M222,202.2c-2.2,0-4.3,0-6.5,0C217.7,201.2,219.8,201.1,222,202.2z"/>
		<path class="st44" d="M31.1,72.6c-2.2,0-4.3,0-6.5,0C26.7,71.6,28.9,71.6,31.1,72.6z"/>
		<path class="st44" d="M40.6,202.2c-2.2,0-4.3,0-6.5,0C36.2,201.1,38.4,201.2,40.6,202.2z"/>
		<path class="st51" d="M59.6,78.3c2,1.7,0.1,3.4-0.1,5C59,81.7,59.6,80,59.6,78.3z"/>
		<path class="st51" d="M196.5,83.4c-0.1-1.7-2.1-3.3-0.1-5C196.4,80,197,81.7,196.5,83.4z"/>
		<path class="st52" d="M126.5,162.5c1-1.8,2-1.8,3,0C128.5,163,127.5,163,126.5,162.5z"/>
		<path class="st53" d="M197.6,139.6c-0.4-1.4-1-2.7-1-4.3C198,136.3,197.8,137.9,197.6,139.6z"/>
		<path class="st53" d="M48.6,59.9c-0.4-1.4-1.1-2.6-1-4.3C49,56.5,48.9,58.2,48.6,59.9z"/>
		<path class="st54" d="M218.5,164.5c-0.4-1.4-1.1-2.7-1-4.3C219,161.2,218.8,162.8,218.5,164.5z"/>
		<path class="st55" d="M175.5,58.4c-0.4-1.4-1.1-2.7-1-4.3C176,55.1,175.8,56.7,175.5,58.4z"/>
		<path class="st56" d="M108.6,17.9c-0.4-1.4-1.1-2.7-1-4.3C109,14.5,108.9,16.2,108.6,17.9z"/>
		<path class="st55" d="M239.5,189.4c-0.4-1.4-1.1-2.6-1-4.3C239.9,186.1,239.8,187.7,239.5,189.4z"/>
		<path class="st57" d="M101.5,25.9c1,0.7,2,1.4,1,3.3C102.2,28.1,101.9,27,101.5,25.9z"/>
		<path class="st57" d="M153.6,29.3c-1-1.9-0.1-2.6,1-3.3C154.2,27,153.9,28.1,153.6,29.3z"/>
		<path class="st58" d="M208.1,207.9c1.7,0.9,0.5,2.3,0.3,3.6C208,210.3,207.6,209.2,208.1,207.9z"/>
		<path class="st59" d="M17.2,78.3c1.7,0.9,0.5,2.3,0.3,3.6C17,80.8,16.7,79.6,17.2,78.3z"/>
		<path class="st59" d="M238.6,81.9c-0.2-1.3-1.4-2.7,0.3-3.6C239.4,79.6,239,80.8,238.6,81.9z"/>
		<path class="st50" d="M172.6,45.6c-0.3-0.9-0.7-1.7-0.6-2.8c0.1-0.3,0.1-1.2,0.4-0.5c0.4,0.9,0.4,2.2,0.6,3.3c0,0,0,0,0,0
			C172.9,45.6,172.7,45.6,172.6,45.6z"/>
		<path class="st58" d="M47.7,211.5c-0.2-1.2-1.4-2.7,0.3-3.6C48.4,209.2,48.1,210.3,47.7,211.5z"/>
		<path class="st50" d="M84.1,42.8c0.1,1.1-0.3,1.9-0.6,2.8c-0.1,0-0.3,0-0.4,0c0,0,0,0,0,0c0.2-1.1,0.2-2.3,0.6-3.3
			C83.9,41.6,84,42.6,84.1,42.8z"/>
		<path class="st56"
			  d="M235.5,16.4c-0.4-0.8-0.6-1.7-0.6-2.7c0.1-0.3,0.3-1.1,0.4-0.7C235.5,14.1,236.3,15.2,235.5,16.4z"/>
		<path class="st56"
			  d="M187.1,82.1c0,1-0.2,1.9-0.6,2.7c-0.8-1.2,0.1-2.3,0.2-3.4C186.8,81.1,187,81.9,187.1,82.1z"/>
		<path class="st56"
			  d="M69.6,84.8C69.2,84,69,83.1,69,82.1c0.1-0.3,0.3-1.1,0.4-0.7C69.5,82.5,70.3,83.6,69.6,84.8z"/>
		<path class="st60" d="M26.6,237.9c-0.3-1.3-1.4-2.5-0.1-3.8C26.3,235.3,27.3,236.6,26.6,237.9z"/>
		<path class="st56" d="M148.1,13.6c0.1,1.5,0.1,3-0.6,4.2C147,16.3,147.4,14.9,148.1,13.6z"/>
		<path class="st54" d="M38.1,160.3c0.1,1.5,0.1,3-0.6,4.2C37,162.9,37.5,161.6,38.1,160.3z"/>
		<path class="st55" d="M81.1,54.2c0.1,1.5,0.1,3-0.6,4.2C80,56.8,80.5,55.5,81.1,54.2z"/>
		<path class="st60" d="M229.6,234c1.3,1.3,0.2,2.6-0.1,3.8C228.7,236.6,229.8,235.3,229.6,234z"/>
		<path class="st56" d="M21.1,13.8c0,1-0.2,1.9-0.6,2.7c-0.8-1.2,0-2.3,0.2-3.4C20.8,12.7,21,13.5,21.1,13.8z"/>
		<path class="st55" d="M17.1,185.2c0.1,1.5,0.1,3-0.6,4.2C16,187.8,16.5,186.5,17.1,185.2z"/>
		<path class="st53" d="M59.1,135.4c0.1,1.5,0.1,3-0.6,4.2C58,138,58.5,136.7,59.1,135.4z"/>
		<path class="st61" d="M129.1,92.6c-0.3-1.2-0.5-2.3-0.8-3.5C129.3,90,129.9,91,129.1,92.6z"/>
		<path class="st61" d="M127.8,89.2c-0.3,1.2-0.5,2.3-0.8,3.5C126.2,91,126.8,90,127.8,89.2z"/>
		<path class="st53" d="M208.1,55.6c0.1,1.5,0,3-0.6,4.2C207,58.3,207.4,56.9,208.1,55.6z"/>
		<path class="st62" d="M127.1,213.8c0.7-1.2,1.3-1.2,2,0C128.4,214.6,127.7,214.6,127.1,213.8z"/>
		<path class="st54" d="M170.1,193.1c0,1-0.1,1.9-0.6,2.8C169,194.6,169.1,193.7,170.1,193.1z"/>
		<path class="st63"
			  d="M111.5,87.7c0.5-0.3,0.5-1,0.6-1.6c0.5,0.8,0.9,1.8,0.4,2.7C112.3,89.2,111.7,88.3,111.5,87.7z"/>
		<path class="st54" d="M86.6,195.9c-0.4-0.8-0.6-1.7-0.6-2.8C87,193.7,87.1,194.6,86.6,195.9z"/>
		<path class="st64" d="M196.1,29.9c0-1-1.2-1.8-0.2-2.9C196.7,27.9,196.7,28.9,196.1,29.9z"/>
		<path class="st64" d="M60.1,27.1c1,1.1-0.2,1.9-0.2,2.9C59.4,28.9,59.4,27.9,60.1,27.1z"/>
		<path class="st63" d="M144,86.1c0.1,0.6,0.1,1.3,0.6,1.6c-0.3,0.6-0.8,1.5-1,1.1C143.1,88,143.4,86.9,144,86.1z"/>
		<path class="st34" d="M102.5,234.3c1,0.7,0.1,1.4,0,2.1C101.9,235.7,102,235,102.5,234.3z"/>
		<path class="st65" d="M123.1,155.9c0.7,0.4,1.3,0.9,0.8,2.1C123.6,157.4,122.5,157.4,123.1,155.9z"/>
		<path class="st65" d="M132.2,158.1c-0.4-1.3,0.1-1.8,0.8-2.1C133.6,157.4,132.5,157.4,132.2,158.1z"/>
		<path class="st66" d="M111.1,236.4c-0.1-0.7-0.9-1.4,0-2.1C111.6,235,111.6,235.7,111.1,236.4z"/>
		<path class="st66" d="M145,234.3c0.9,0.7,0.1,1.4,0,2.1C144.4,235.7,144.4,235,145,234.3z"/>
		<path class="st67" d="M38.6,52.7c1.1,0.4,0.5,1.3,0.3,2.2C38.6,54.2,38,53.6,38.6,52.7z"/>
		<path class="st34" d="M153.6,236.4c-0.2-0.7-1-1.4,0-2.1C154.1,235,154.1,235.7,153.6,236.4z"/>
		<path class="st67" d="M217.1,54.9c-0.2-0.8-0.7-1.7,0.3-2.2C218.1,53.6,217.4,54.2,217.1,54.9z"/>
		<path class="st4" d="M256.5,257.1c0-11.4,0-22.8,0-34.2c27.5,0,55.1,0,82.6,0c1,0,2-0.5,2.9,0.7c-1.1,1.7-2.7,1.9-4,2.9
			c-1.7,1.7-3.8,2.5-5.5,4.3c-1.1,1.6-2.7,1.9-4,2.8c-1.7,1.7-3.8,2.5-5.5,4.3c-1.1,1.6-2.7,1.9-4,2.8c-1.7,1.7-3.8,2.5-5.5,4.3
			c-1.1,1.6-2.7,1.9-4,2.8c-1.7,1.7-3.8,2.5-5.5,4.3c-1.1,1.6-2.7,1.9-4,2.8c-1.7,1.1-3.1,3.3-5.2,2.9c-11.7-0.2-23.4,0-35.1-0.1
			C258.6,257.8,257.4,258.2,256.5,257.1z"/>
		<path class="st68" d="M352,287.7c0,63.8,0,127.7,0,191.5c-0.8-1.1-0.5-2.5-0.5-3.7c0-61.4,0-122.7,0-184.1
			C351.5,290.2,351.2,288.8,352,287.7z"/>
		<path class="st68" d="M288,479.2c0-63.8,0-127.7,0-191.5c0.8,1.1,0.5,2.5,0.5,3.7c0,61.4,0,122.7,0,184.1
			C288.5,476.8,288.7,478.1,288,479.2z"/>
		<path class="st69" d="M295.4,257.7c1.6-0.8,2.9-2.4,4.5-2.8c-1.4,2.3-3.4,3.1-5.2,4.1c-0.8-1.1-1.7-0.5-2.6-0.5
			c-12.1-0.1-24.1-0.1-36.2-0.1c0-0.2,0-0.4,0.1-0.6c0.5-0.6,1.1-0.4,1.7-0.4c12.1,0,24.2,0,36.2,0
			C294.5,257.4,295,257.4,295.4,257.7z"/>
		<path class="st5" d="M259,285.8c0.7-0.5,1.3-1,2-1.5c0.2,0.4,0.3,0.9,0.5,1.3c1-0.8,2.1-0.3,3.2-0.3c6.6,0,13.2,0,19.9,0
			c0.8,0,1.7-0.3,2.4,0.3c-0.4,0.7-1,0.7-1.6,0.7c-8.4,0-16.8,0-25.2,0C259.8,286.2,259.4,285.9,259,285.8z"/>
		<path class="st7" d="M287,285.6c-8.5,0-17,0-25.5,0c0.3-0.6,0.8-1,1.3-1c7.5,0.6,15.1,0.1,22.6,0.3
			C286,284.9,286.5,284.9,287,285.6z"/>
		<path class="st70" d="M332.5,230.8c1.5-2.4,3.5-3.3,5.5-4.3C336.5,228.8,334.4,229.7,332.5,230.8z"/>
		<path class="st70" d="M323,237.9c1.5-2.4,3.5-3.3,5.5-4.3C327,235.9,324.9,236.8,323,237.9z"/>
		<path class="st70" d="M313.5,245c1.5-2.4,3.5-3.3,5.5-4.3C317.5,243.1,315.4,244,313.5,245z"/>
		<path class="st70" d="M304,252.1c1.5-2.4,3.5-3.3,5.5-4.3C308,250.2,306,251.1,304,252.1z"/>
		<path class="st71"
			  d="M382,194.4c0,0.2,0,0.5,0,0.7c-1.1-0.3-1.8,2-3,0.8c1-0.7,2-1.5,3-2.2C382,194,382,194.2,382,194.4z"/>
		<path class="st72" d="M360,210.2c0.8-0.6,1.5-1.1,2.3-1.7C362,210.5,361.1,210.8,360,210.2z"/>
		<path class="st73" d="M369.5,203.1c0.8-0.6,1.5-1.1,2.3-1.7C371.5,203.4,370.6,203.6,369.5,203.1z"/>
		<path class="st4" d="M256.5,109c0-11.4,0-22.8,0-34.2c0.9-0.7,1.8-0.3,2.7-0.3c92.2,0,184.4,0,276.5,0c1.1,0,2.4-0.8,3.2,1.1
			c-9.1,6.9-18.2,13.9-27.4,20.7c-6.4,4.8-12.8,9.4-19.2,14.1c0-0.3,0-0.5,0-0.8c-1-0.7-2.1-0.3-3.2-0.3c-76.5,0-153,0-229.5,0
			C258.6,109.3,257.5,109.7,256.5,109z"/>
		<path class="st4" d="M256.5,183.7c0-11.4,0-22.8,0-34.2c0.9-0.7,2-0.3,2.9-0.3c59,0,118,0,177,0c1,0,2,0.3,3-0.3
			c0.2,0.3,0.4,0.6,0.6,0.9c-10.2,7.7-20.4,15.5-30.7,23.2c-5.1,3.8-10.3,7.6-15.4,11.4c-1-1-2.1-0.6-3.1-0.6
			C346,183.7,301.3,183.7,256.5,183.7z"/>
		<path class="st74" d="M538.9,75.6c-1-0.9-2.1-0.7-3.2-0.7c-93.1,0-186.2,0-279.3,0c0-0.2,0-0.5,0-0.7c0.8-0.1,1.7-0.2,2.5-0.2
			c93.2,0,186.4,0,279.6,0c0.6,0,1.3,0,1.9,0c0,0.2,0.1,0.4,0.1,0.6C540,74.9,539.5,75.2,538.9,75.6z"/>
		<ellipse class="st10" cx="349.5" cy="146.4" rx="130.6" ry="0.2"/>
		<path class="st75" d="M552.4,65.6c-1.3,2.3-3.3,2.9-5,3.9C548.8,67.6,550.5,66.3,552.4,65.6L552.4,65.6z"/>
		<path class="st76" d="M575.4,48.5c1.5-2.3,3.5-3.3,5.5-4.3l0,0C579.4,46.5,577.4,47.5,575.4,48.5L575.4,48.5z"/>
		<path class="st75"
			  d="M453.9,139.6c1.5-2.3,3.5-3.3,5.5-4.3l0,0C457.9,137.7,455.9,138.6,453.9,139.6L453.9,139.6z"/>
		<path class="st75" d="M561.9,58.4c-1.3,2.4-3.3,2.7-5,3.9C558.3,60.5,560,59.2,561.9,58.4L561.9,58.4z"/>
		<path class="st75"
			  d="M468.9,128.2c-1.5,2.3-3.5,3.3-5.5,4.3l0,0C464.9,130.1,466.9,129.2,468.9,128.2L468.9,128.2z"/>
		<path class="st77" d="M444.4,146c1.8-1.1,3.5-2.9,5.5-3.6l0,0c-1.5,2.4-3.5,3.2-5.5,4.3c-0.2-0.2-0.2-0.3-0.2-0.5
			C444.3,146.1,444.4,146,444.4,146z"/>
		<path class="st75" d="M571.4,51.3c-1.3,2.3-3.3,2.9-5,3.9C567.8,53.3,569.5,52.1,571.4,51.3L571.4,51.3z"/>
		<path class="st76"
			  d="M472.9,125.4c1.5-2.3,3.5-3.3,5.5-4.3l0,0C476.9,123.4,474.9,124.4,472.9,125.4L472.9,125.4z"/>
		<path class="st75" d="M482.4,118.2c1.3-2.3,3.3-2.9,5-3.9C486,116.2,484.3,117.5,482.4,118.2L482.4,118.2z"/>
		<path class="st77" d="M584.9,41.4c1.1-2.2,2.9-2.5,4.4-3.4C588,39.5,586.6,40.8,584.9,41.4L584.9,41.4z"/>
		<path class="st78" d="M582.7,96c-0.3,1.6-0.7,1.9-2.3,1.7C581.2,97.1,581.9,96.6,582.7,96z"/>
		<path class="st79" d="M563.7,110.3c-0.2,2-1.1,2.2-2.3,1.7C562.2,111.4,562.9,110.8,563.7,110.3z"/>
		<path class="st80" d="M444.4,146c0,0.2,0,0.5,0,0.7c-0.5,0.9-1.2,1.3-2,1.4c0-0.2-0.1-0.5-0.1-0.7
			C443.1,147,443.7,146.5,444.4,146z"/>
		<path class="st81"
			  d="M571.4,51.3c0.5-0.9,1.2-1.3,2-1.4l0,0C573,51.2,572.2,51.4,571.4,51.3C571.4,51.3,571.4,51.3,571.4,51.3z"
		/>
		<path class="st81"
			  d="M552.4,65.6c0.4-0.8,0.9-1.1,1.7-1.2C553.7,65.8,553,65.5,552.4,65.6C552.4,65.6,552.4,65.6,552.4,65.6z"/>
		<path class="st81" d="M482.4,118.3c-0.5,0.9-1.2,1.3-2,1.4l0,0C480.8,118.4,481.6,118.2,482.4,118.3
			C482.4,118.2,482.4,118.3,482.4,118.3z"/>
		<path class="st82"
			  d="M580.9,44.2c0.5-0.9,1.2-1.3,2-1.4l0,0C582.5,44,581.7,44.3,580.9,44.2C580.9,44.2,580.9,44.2,580.9,44.2z"
		/>
		<path class="st83" d="M543.6,71.7c0.6-0.2,0.9-0.2,0.9,0.2c0,0.2-0.3,0.5-0.5,0.6c-0.2,0.1-0.4-0.1-0.6-0.1
			C543.5,72,543.7,71.6,543.6,71.7z"/>
		<path class="st83"
			  d="M561.9,58.4c0.4-0.6,0.8-1.3,1.6-1C563.2,58.7,562.5,58.3,561.9,58.4C561.9,58.4,561.9,58.4,561.9,58.4z"/>
		<path class="st82" d="M453.9,139.6c-0.5,0.9-1.2,1.3-2,1.4l0,0C452.3,139.8,453.1,139.5,453.9,139.6
			C453.9,139.6,453.9,139.6,453.9,139.6z"/>
		<path class="st81" d="M573.4,49.9c0.4-1.3,1.1-1.5,2-1.4c0,0,0,0,0,0C574.9,49.4,574.2,49.8,573.4,49.9
			C573.4,49.9,573.4,49.9,573.4,49.9z"/>
		<path class="st82" d="M582.9,42.8c0.4-1.2,1.1-1.5,2-1.4c0,0,0,0,0,0C584.4,42.3,583.7,42.7,582.9,42.8
			C582.9,42.8,582.9,42.8,582.9,42.8z"/>
		<path class="st83"
			  d="M470.9,126.8c0.4-1.3,1.1-1.5,2-1.4c0,0,0,0,0,0C472.4,126.3,471.7,126.7,470.9,126.8L470.9,126.8z"/>
		<path class="st81"
			  d="M461.4,133.9c-0.4,1.3-1.1,1.5-2,1.4c0,0,0,0,0,0C459.9,134.4,460.6,134,461.4,133.9L461.4,133.9z"/>
		<path class="st82" d="M451.9,141c-0.4,1.2-1.1,1.5-2,1.4c0,0,0,0,0,0C450.4,141.5,451.1,141.1,451.9,141
			C451.9,141,451.9,141,451.9,141z"/>
		<path class="st81" d="M470.9,126.8c-0.4,1.2-1.1,1.5-2,1.4c0,0,0,0,0,0C469.4,127.3,470.1,126.9,470.9,126.8
			C470.9,126.8,470.9,126.8,470.9,126.8z"/>
		<path class="st81" d="M463.4,132.5c-0.5,0.9-1.2,1.3-2,1.4c0,0,0,0,0,0C461.8,132.7,462.6,132.4,463.4,132.5
			C463.4,132.5,463.4,132.5,463.4,132.5z"/>
		<path class="st81" d="M478.4,121.1c0.5-0.9,1.2-1.3,2-1.4c0,0,0,0,0,0C480,120.9,479.3,121.1,478.4,121.1
			C478.4,121.1,478.4,121.1,478.4,121.1z"/>
		<path class="st84" d="M471.4,318.5c-0.2,0.2-0.3,0.4-0.5,0.6c-0.9,0.6-1.8,0.3-2.7,0.3c-12.8,0-25.6,0-38.4,0c-1,0-2-0.3-2.9,0.6
			c-0.7-0.5-1.6-0.7-2.3-2c3.6,0,6.9,0,10.2,0c11.1,0,22.2,0,33.4,0C469.3,318,470.4,317.8,471.4,318.5z"/>
		<path class="st7" d="M426.9,320c0.6-1.3,1.6-0.9,2.5-0.9c13.8,0,27.7,0,41.5,0c-0.8,1.1-1.9,0.7-2.8,0.7c-12.6,0-25.2,0-37.8,0
			c-1,0-2-0.5-2.8,0.7C427.3,320.3,427.1,320.1,426.9,320z"/>
		<path class="st85" d="M435.9,326.8c1.7-0.2,3.2,0.4,4,2.9C438.3,329.5,437.2,327.8,435.9,326.8z"/>
		<path class="st85" d="M623.9,467.8c1.7-0.2,3.2,0.4,4,2.9C626.3,470.4,625.2,468.8,623.9,467.8z"/>
		<path class="st73" d="M614.4,460.6c1.7-0.2,3.2,0.4,4,2.9C616.8,463.3,615.7,461.6,614.4,460.6z"/>
		<path class="st86" d="M633.4,474.9c1.7-0.2,3.2,0.4,4,2.9C635.8,477.5,634.7,475.9,633.4,474.9z"/>
		<path class="st86"
			  d="M476.9,322.7c-1.1,1-1.7-0.5-2.5-1c0.2-0.2,0.4-0.3,0.5-0.5C475.6,321.7,476.2,322.2,476.9,322.7z"/>
		<path class="st73" d="M486.4,329.8c-1.2,0.6-2,0.3-2.3-1.7C484.9,328.7,485.6,329.2,486.4,329.8z"/>
		<path class="st72" d="M533.9,365.4c-1.2,0.6-2.1,0.3-2.3-1.7C532.4,364.3,533.1,364.8,533.9,365.4z"/>
		<path class="st79" d="M561.4,368.1c1.2-0.6,2-0.3,2.3,1.7C562.9,369.2,562.2,368.6,561.4,368.1z"/>
		<path class="st78" d="M580.4,382.3c1.2-0.6,2-0.3,2.3,1.7C581.9,383.4,581.2,382.9,580.4,382.3z"/>
		<path class="st73" d="M495.9,336.9c-1.2,0.6-2.1,0.3-2.3-1.7C494.4,335.8,495.1,336.3,495.9,336.9z"/>
		<path class="st79" d="M473.4,408.1c-1.2,0.6-2,0.3-2.3-1.7C471.9,407,472.7,407.5,473.4,408.1z"/>
		<path class="st73" d="M505.4,344c-1.2,0.6-2.1,0.3-2.3-1.7C503.9,342.9,504.6,343.5,505.4,344z"/>
		<path class="st79" d="M492.4,422.3c-1.2,0.6-2,0.3-2.3-1.7C490.9,421.2,491.6,421.8,492.4,422.3z"/>
		<path class="st72" d="M566.9,425c1.2-0.6,2.1-0.4,2.3,1.7C568.4,426.1,567.7,425.6,566.9,425z"/>
		<path class="st72" d="M585.9,439.3c1.2-0.6,2.1-0.4,2.3,1.7C587.4,440.4,586.7,439.8,585.9,439.3z"/>
		<path class="st73" d="M595.4,446.4c1.2-0.6,2.1-0.3,2.3,1.7C596.9,447.5,596.2,446.9,595.4,446.4z"/>
		<path class="st73" d="M604.9,453.5c1.2-0.6,2.1-0.3,2.3,1.7C606.4,454.6,605.6,454.1,604.9,453.5z"/>
		<path class="st78" d="M482.9,415.2c-1.2,0.6-2,0.3-2.3-1.7C481.4,414.1,482.1,414.7,482.9,415.2z"/>
		<path class="st72" d="M514.9,351.1c-1.2,0.6-2.1,0.4-2.3-1.7C513.4,350,514.1,350.6,514.9,351.1z"/>
		<path class="st22" d="M243.6,297c-1.2-1.1-2.6-0.8-3.9-0.8c-78.6,0-157.2,0-235.7,0c-1.1,0-2.3,0.6-3.4-0.6c0.9,0,1.8-0.1,2.7-0.1
			c79.8,0,159.6,0,239.5,0c0.8,0,1.6,0,2.4,0c0,0.2,0,0.4,0.1,0.6C244.7,296.4,244.2,296.7,243.6,297z"/>
		<path class="st84" d="M216.5,319c-0.2,0-0.4,0-0.6,0c0-0.7,0.1-1.1,0.7-0.9c13.9-0.1,27.9-0.1,41.8-0.2c1.2,0,2.5,0,3.8,0
			c-0.4,1.4-1.4,1.4-2.1,2c-0.9-0.9-1.9-0.6-2.9-0.6c-12.6,0-25.3,0-37.9,0C218.3,319.4,217.4,319.7,216.5,319z"/>
		<path class="st7" d="M216.5,319c13.6,0,27.2,0,40.8,0c0.9,0,2-0.5,2.8,0.9c-0.2,0.2-0.4,0.3-0.6,0.5c-0.8-1.2-1.9-0.7-2.8-0.7
			c-12.4,0-24.9,0-37.3,0C218.4,319.7,217.4,320.2,216.5,319z"/>
		<path class="st87" d="M216.6,318.2c-0.2,0.3-0.5,0.6-0.7,0.9c-2.3,1.4-4.6,2.9-7,4.3c2.2-2.9,4.9-4.4,7.6-5.7
			C216.7,317.8,216.7,318,216.6,318.2z"/>
		<path class="st88" d="M247,329.7c0.7-2,2.1-3,3.9-2.9C249.7,327.8,248.4,328.7,247,329.7z"/>
		<path class="st86" d="M49.6,477.8c0.7-2.5,2.2-3.1,4-2.9C52.2,475.9,50.9,476.8,49.6,477.8z"/>
		<path class="st72" d="M146.2,405.3c0.3-2,1.1-2.3,2.3-1.7C147.8,404.2,147,404.8,146.2,405.3z"/>
		<path class="st79" d="M168.8,406.4c-0.2,2-1.1,2.2-2.3,1.7C167.3,407.6,168.1,407,168.8,406.4z"/>
		<path class="st78" d="M159.3,413.6c-0.2,2-1.1,2.2-2.3,1.7C157.8,414.7,158.6,414.1,159.3,413.6z"/>
		<path class="st79" d="M149.8,420.7c-0.2,2-1.1,2.2-2.3,1.7C148.3,421.8,149.1,421.2,149.8,420.7z"/>
		<path class="st72" d="M117.8,426.7c0.2-2,1.1-2.3,2.3-1.7C119.3,425.6,118.5,426.1,117.8,426.7z"/>
		<path class="st73" d="M89.3,448.1c0.2-2,1.1-2.3,2.3-1.7C90.8,446.9,90,447.5,89.3,448.1z"/>
		<path class="st73" d="M79.8,455.2c0.2-2,1.1-2.3,2.3-1.7C81.3,454.1,80.5,454.6,79.8,455.2z"/>
		<path class="st86" d="M61,469.2c-0.2-0.2-0.4-0.3-0.5-0.5c0.8-0.5,1.4-2,2.5-1C62.4,468.2,61.7,468.7,61,469.2z"/>
		<path class="st73" d="M70.3,462.3c0.3-1.6,0.7-2,2.3-1.7C71.8,461.2,71,461.7,70.3,462.3z"/>
		<path class="st89" d="M375.5,334.7c0,47.9,0,95.7,0,144.3c-0.7-1.9-0.4-3.1-0.4-4.4c0-45.2,0-90.3,0-135.5
			C375,337.6,374.7,336,375.5,334.7C375.5,334.7,375.5,334.7,375.5,334.7z"/>
		<path class="st89" d="M264.5,334.7c0.6,0.9,0.5,2,0.5,3c0,46.5,0,92.9,0,139.4c0,0.3-0.1,0.7-0.5,1
			C264.5,430.3,264.5,382.5,264.5,334.7C264.5,334.7,264.5,334.7,264.5,334.7z"/>
		<path class="st90" d="M21.1,464.3c2.1-2.9,4.9-4.2,7.5-5.8C26.5,461.5,23.7,462.7,21.1,464.3z"/>
		<path class="st91" d="M133,380.3c2.1-2.9,4.9-4.3,7.5-5.8C138.4,377.4,135.7,378.7,133,380.3z"/>
		<path class="st90" d="M2.1,478.6c2.1-2.9,4.9-4.2,7.5-5.8C7.5,475.7,4.7,476.9,2.1,478.6z"/>
		<path class="st92" d="M45.6,445c0.7-0.3,1.3-0.6,2-0.9c-2.1,3.1-4.9,4.2-7.5,5.9C41.4,447.4,44,447.3,45.6,445z"/>
		<path class="st91" d="M123.5,387.4c2.1-2.9,4.9-4.2,7.5-5.8C128.9,384.5,126.2,385.9,123.5,387.4z"/>
		<path class="st93" d="M199.5,330.5c1.5-2.4,3.5-3.3,5.5-4.3C203.5,328.5,201.5,329.4,199.5,330.5z"/>
		<path class="st94" d="M116,393.1c1.5-2.4,3.5-3.3,5.5-4.3C120.1,391.1,118,392,116,393.1z"/>
		<path class="st91" d="M106.5,400.2c1.5-2.3,3.5-3.3,5.5-4.3C110.5,398.2,108.5,399.2,106.5,400.2z"/>
		<path class="st95" d="M30.6,457.2c1.5-2.4,3.5-3.3,5.5-4.3C34.6,455.2,32.5,456.1,30.6,457.2z"/>
		<path class="st95" d="M11.6,471.4c1.5-2.4,3.5-3.3,5.5-4.3C15.6,469.5,13.5,470.4,11.6,471.4z"/>
		<path class="st96" d="M164.5,356.8c1.3-1,2.6-2,4-2.9C167.7,356.4,166.3,357,164.5,356.8z"/>
		<path class="st96" d="M183.5,342.6c1.3-1,2.6-2,4-2.9C186.7,342.2,185.3,342.8,183.5,342.6z"/>
		<path class="st97" d="M98,406.6c0-0.2,0-0.4,0-0.6c1.5-1,2.9-2.5,4.6-2.9C101.4,405,99.7,405.9,98,406.6z"/>
		<path class="st98" d="M193,335.5c1-1,2.1-2,3.3-2.3C195.7,335.1,194.6,335.9,193,335.5z"/>
		<path class="st99" d="M205,326.2c0.5-0.9,1.2-1.3,2-1.4C206.6,325.9,205.9,326.2,205,326.2z"/>
		<path class="st100" d="M104.5,401.7c0.4-1.3,1.2-1.5,2-1.5C106,401.1,105.3,401.5,104.5,401.7z"/>
		<path class="st101" d="M36.1,452.9c0.5-0.9,1.2-1.3,2-1.5C37.7,452.7,36.9,452.9,36.1,452.9z"/>
		<path class="st101" d="M17.1,467.1c0.5-0.9,1.2-1.3,2-1.5C18.7,466.9,17.9,467.2,17.1,467.1z"/>
		<path class="st102"
			  d="M144.5,371.7c0.2-0.4,0.4-0.9,0.6-1.3c0.3-0.1,0.6-0.1,0.9-0.2C146.1,371.9,145.1,371.3,144.5,371.7z"/>
		<path class="st100"
			  d="M144,371.6c0.2,0,0.3,0,0.5,0.1c-0.5,0.9-1.2,1.3-2,1.5C142.8,372.2,143.4,371.8,144,371.6z"/>
		<path class="st74" d="M98,405.9c-9.9,0-19.8,0.1-29.7,0.1c-21.7,0-43.4,0-65.1,0c-0.9,0-1.8-0.1-2.7-0.1c0.8-1.1,1.7-0.7,2.6-0.7
			c30.8,0,61.5,0,92.3,0C96.3,405.2,97.3,404.8,98,405.9z"/>
		<path class="st23" d="M295.4,257.7c-13.1,0-26.3,0-39.4,0.1c0-0.3,0-0.5,0-0.8c0.1,0,0.3,0,0.4,0c12,0,24.1,0,36.1,0
			C293.5,257.1,294.6,256.6,295.4,257.7z"/>
		<path class="st9" d="M439.4,148.9c-0.9,1.2-2.1,0.7-3.1,0.7c-59.9,0-119.9,0-179.8,0c0-0.2,0-0.5,0-0.7
			C317.5,148.9,378.4,148.9,439.4,148.9z"/>
		<path class="st13" d="M256.5,109c77.6,0,155.2,0,232.8,0c1,0,2.2-0.5,3.1,0.7c-78.6,0-157.3,0-235.9,0
			C256.5,109.5,256.5,109.2,256.5,109z"/>
	</g>
</g>
</svg>
